<svg id="Layer_1" data-name="Layer 1" xmlns="http://www.w3.org/2000/svg" viewBox="0 0 393.44 184.92"><defs><style>.cls-1{fill:#899996;}.cls-2{fill:#b66454;}.cls-3{fill:#565052;}.cls-4{fill:#fff;stroke:#fff;stroke-miterlimit:10;}.cls-5{fill:#58595b;}</style></defs><title>logo-C2_v01</title><path class="cls-1" d="M36.55,189.44A108,108,0,1,1,188.18,35.6" transform="translate(-4.36 -4.52)"/><path class="cls-2" d="M48.34,49.17A90,90,0,0,1,176.18,175.88" transform="translate(-4.36 -4.52)"/><circle class="cls-3" cx="108" cy="108" r="72"/><path class="cls-4" d="M95.92,125l-6.36,17H72.64L104,64.35h16.8L152.08,142H134.32l-21.6-57.77-1-4-1.08,4.16-10.2,27.65L99,114.21l1.8-.21H110a9.25,9.25,0,0,1,4.56,1.07,13,13,0,0,1,3.36,2.67,17,17,0,0,1,2.46,3.58A29.75,29.75,0,0,1,122,125Z" transform="translate(-4.36 -4.52)"/><path class="cls-5" d="M236.53,38.38l8.13,22.34H241l-2.38-6.62h-8.31l-2.38,6.62h-3.73l8.23-22.34Zm-2.1,4.26-.78,2.17-.77,2.13-.78,2.15q-.4,1.08-.79,2.23h6.22Z" transform="translate(-4.36 -4.52)"/><path class="cls-5" d="M249.56,38.38v19.5H260.4v2.84H246V38.38Z" transform="translate(-4.36 -4.52)"/><path class="cls-5" d="M273.29,38.38l8.13,22.34h-3.7l-2.38-6.62H267l-2.38,6.62h-3.73l8.23-22.34Zm-2.1,4.26-.78,2.17-.77,2.13-.78,2.15q-.4,1.08-.79,2.23h6.22Z" transform="translate(-4.36 -4.52)"/><path class="cls-5" d="M282.81,38.38h9a8.25,8.25,0,0,1,2.77.43A6.45,6.45,0,0,1,296.66,40a5,5,0,0,1,1.3,1.73,5,5,0,0,1,.45,2.1,5.72,5.72,0,0,1-.69,2.75,6.22,6.22,0,0,1-2.12,2.23,7.85,7.85,0,0,1,1.89,1,5.56,5.56,0,0,1,1.27,1.29,5,5,0,0,1,.71,1.52,6.27,6.27,0,0,1,.22,1.66,5.68,5.68,0,0,1-.57,2.5,6.73,6.73,0,0,1-1.52,2.05,7.39,7.39,0,0,1-2.2,1.39,6.74,6.74,0,0,1-2.59.51h-10Zm3.52,9.08h5a4.23,4.23,0,0,0,1.52-.27,3.77,3.77,0,0,0,1.2-.72,3.28,3.28,0,0,0,.78-1.06,3,3,0,0,0,.28-1.29,3.26,3.26,0,0,0-.2-1.14,2.37,2.37,0,0,0-.62-.92,3,3,0,0,0-1.06-.61,4.62,4.62,0,0,0-1.51-.22h-5.37Zm0,10.42h5.51a5.46,5.46,0,0,0,1.52-.22,4.19,4.19,0,0,0,1.37-.68,3.62,3.62,0,0,0,1-1.16,3.6,3.6,0,0,0,0-3.17,3.67,3.67,0,0,0-1-1.25,5.1,5.1,0,0,0-1.61-.85,6.78,6.78,0,0,0-2.15-.32h-4.67Z" transform="translate(-4.36 -4.52)"/><path class="cls-5" d="M312.86,38.38,321,60.72h-3.7l-2.38-6.62H306.6l-2.38,6.62h-3.73l8.23-22.34Zm-2.1,4.26L310,44.81l-.77,2.13-.78,2.15q-.4,1.08-.79,2.23h6.22Z" transform="translate(-4.36 -4.52)"/><path class="cls-5" d="M326.32,38.38l6.38,17.16,6.5-17.16h4.07V60.72h-3.52V45.45l-5.38,15.27h-3.06l-5.51-15.3v15.3h-3.54V38.38Z" transform="translate(-4.36 -4.52)"/><path class="cls-5" d="M357.51,38.38l8.13,22.34h-3.7l-2.38-6.62h-8.31l-2.38,6.62h-3.73l8.23-22.34Zm-2.1,4.26-.78,2.17-.77,2.13-.78,2.15q-.4,1.08-.79,2.23h6.22Z" transform="translate(-4.36 -4.52)"/><path class="cls-5" d="M225.57,74.38h8.62a9.43,9.43,0,0,1,4.12.88,9.32,9.32,0,0,1,3.12,2.39,10.83,10.83,0,0,1,2,3.54,13.79,13.79,0,0,1,0,8.74,10.9,10.9,0,0,1-2,3.56,9.45,9.45,0,0,1-3.13,2.37,9.31,9.31,0,0,1-4,.86h-8.62Zm3.49,19.5h4.2a7.44,7.44,0,0,0,2.91-.56,6.43,6.43,0,0,0,2.31-1.63A7.63,7.63,0,0,0,240,89.06a10.57,10.57,0,0,0,.54-3.52,11.23,11.23,0,0,0-.55-3.72,7.13,7.13,0,0,0-1.52-2.59,6,6,0,0,0-2.31-1.51,8.36,8.36,0,0,0-2.9-.49h-4.2Z" transform="translate(-4.36 -4.52)"/><path class="cls-5" d="M250.3,74.38V96.72h-3.51V74.38Z" transform="translate(-4.36 -4.52)"/><path class="cls-5" d="M256.27,85.51a12.27,12.27,0,0,0,.54,3.81,8.65,8.65,0,0,0,1.48,2.82,6.46,6.46,0,0,0,2.16,1.75,5.84,5.84,0,0,0,2.62.61,4.78,4.78,0,0,0,2.27-.59,7.41,7.41,0,0,0,2-1.57,8.92,8.92,0,0,0,1.48-2.24,7.87,7.87,0,0,0,.72-2.62h-6.68V84.67H273v12h-2.54l-.5-2.86a11.85,11.85,0,0,1-1.42,1.32,10.93,10.93,0,0,1-1.67,1.09A10,10,0,0,1,265,97a6.62,6.62,0,0,1-1.87.28,10,10,0,0,1-4.33-.91,9.65,9.65,0,0,1-3.28-2.49,11.28,11.28,0,0,1-2.08-3.73,14.4,14.4,0,0,1-.73-4.64,13.71,13.71,0,0,1,.31-2.89,13,13,0,0,1,.91-2.74,12.26,12.26,0,0,1,1.48-2.42,9.8,9.8,0,0,1,2-1.94A9.52,9.52,0,0,1,260,74.23a9.38,9.38,0,0,1,3-.47,11.09,11.09,0,0,1,3.69.57,9.2,9.2,0,0,1,2.83,1.57,9,9,0,0,1,2,2.39,13,13,0,0,1,1.29,3h-3.65a7.69,7.69,0,0,0-2.36-3.62A6,6,0,0,0,263,76.54a5.29,5.29,0,0,0-2.72.72,6.92,6.92,0,0,0-2.12,1.95,9.49,9.49,0,0,0-1.38,2.86A11.89,11.89,0,0,0,256.27,85.51Z" transform="translate(-4.36 -4.52)"/><path class="cls-5" d="M279.35,74.38V96.72h-3.51V74.38Z" transform="translate(-4.36 -4.52)"/><path class="cls-5" d="M299.1,74.38v2.86H292V96.72h-3.51V77.24h-7.15V74.38Z" transform="translate(-4.36 -4.52)"/><path class="cls-5" d="M311.94,74.38l8.13,22.34h-3.7L314,90.1h-8.31l-2.38,6.62h-3.73l8.23-22.34Zm-2.1,4.26-.78,2.17-.77,2.13-.78,2.15q-.4,1.08-.79,2.23h6.22Z" transform="translate(-4.36 -4.52)"/><path class="cls-5" d="M325,74.38v19.5h10.85v2.84H321.45V74.38Z" transform="translate(-4.36 -4.52)"/><path class="cls-5" d="M229.1,110.38v9.38h10.52v-9.38h3.52v22.34h-3.52V122.55H229.1v10.17h-3.52V110.38Z" transform="translate(-4.36 -4.52)"/><path class="cls-5" d="M249.81,110.38v14.91a5.39,5.39,0,0,0,.43,2.21,5.27,5.27,0,0,0,1.13,1.66,4.93,4.93,0,0,0,1.57,1,4.56,4.56,0,0,0,1.76.36,5.69,5.69,0,0,0,1.89-.33,5.21,5.21,0,0,0,1.71-1,5,5,0,0,0,1.22-1.63,5.19,5.19,0,0,0,.47-2.27v-15h3.52V125.2a7.72,7.72,0,0,1-2.82,6,8.84,8.84,0,0,1-1.82,1.16,9.75,9.75,0,0,1-4.14.94,9,9,0,0,1-3-.53,8.4,8.4,0,0,1-2.72-1.56,7.88,7.88,0,0,1-2-2.57,8,8,0,0,1-.75-3.55V110.38Z" transform="translate(-4.36 -4.52)"/><path class="cls-5" d="M270.46,110.38l6.38,17.16,6.5-17.16h4.07v22.34H283.9V117.45l-5.38,15.27h-3.06l-5.51-15.3v15.3h-3.54V110.38Z" transform="translate(-4.36 -4.52)"/><path class="cls-5" d="M301.65,110.38l8.13,22.34h-3.7l-2.38-6.62h-8.31L293,132.72h-3.73l8.23-22.34Zm-2.1,4.26-.78,2.17-.77,2.13-.78,2.15q-.4,1.08-.79,2.23h6.22Z" transform="translate(-4.36 -4.52)"/><path class="cls-5" d="M315.29,110.38l10,16.91V110.38h3.52v22.34h-4.12l-9.95-16.91v16.91h-3.52V110.38Z" transform="translate(-4.36 -4.52)"/><path class="cls-5" d="M335.09,110.38v22.34h-3.51V110.38Z" transform="translate(-4.36 -4.52)"/><path class="cls-5" d="M354.84,110.38v2.86h-7.15v19.48h-3.51V113.23H337v-2.86Z" transform="translate(-4.36 -4.52)"/><path class="cls-5" d="M360.18,110.38v22.34h-3.51V110.38Z" transform="translate(-4.36 -4.52)"/><path class="cls-5" d="M378.67,110.38v2.86H366.56v6.52h11.38v2.86H366.56v7.26h12.63v2.84H363V110.38Z" transform="translate(-4.36 -4.52)"/><path class="cls-5" d="M384.32,125.22a6.73,6.73,0,0,0,.48,2.12,5.48,5.48,0,0,0,1.07,1.68,4.76,4.76,0,0,0,1.57,1.1,4.89,4.89,0,0,0,2,.4,7.74,7.74,0,0,0,1.84-.21,4.49,4.49,0,0,0,1.55-.69,3.47,3.47,0,0,0,1.07-1.23,3.9,3.9,0,0,0,.4-1.85,2.22,2.22,0,0,0-.55-1.52,5.16,5.16,0,0,0-1.46-1.11,14.07,14.07,0,0,0-2.07-.88l-2.38-.83q-1.22-.43-2.38-1a9.24,9.24,0,0,1-2.07-1.28,5.88,5.88,0,0,1-1.46-1.79,5.25,5.25,0,0,1-.55-2.5,5.44,5.44,0,0,1,.57-2.53,5.16,5.16,0,0,1,1.6-1.84,7.57,7.57,0,0,1,2.46-1.13,12,12,0,0,1,3.15-.39,10.35,10.35,0,0,1,2.68.32,8,8,0,0,1,2,.84,6,6,0,0,1,1.48,1.25,7.53,7.53,0,0,1,1,1.52,7.34,7.34,0,0,1,.58,1.63,11.41,11.41,0,0,1,.25,1.63h-3.58a5.36,5.36,0,0,0-.47-1.91,4.38,4.38,0,0,0-1-1.37,4.09,4.09,0,0,0-1.37-.84,4.73,4.73,0,0,0-1.64-.28,7.35,7.35,0,0,0-1.56.17,4.41,4.41,0,0,0-1.37.53,2.87,2.87,0,0,0-1,1,2.7,2.7,0,0,0-.37,1.45,2.49,2.49,0,0,0,.55,1.63,5,5,0,0,0,1.46,1.18,13.07,13.07,0,0,0,2.07.91l2.37.83q1.21.43,2.37.95a9.61,9.61,0,0,1,2.07,1.25,5.75,5.75,0,0,1,1.46,1.73,4.92,4.92,0,0,1,.55,2.41,6.61,6.61,0,0,1-.62,2.95,5.91,5.91,0,0,1-1.74,2.12,7.78,7.78,0,0,1-2.65,1.29,12.35,12.35,0,0,1-3.36.43,9.24,9.24,0,0,1-2.15-.25,9,9,0,0,1-3.79-1.93,7.67,7.67,0,0,1-1.42-1.61,8.15,8.15,0,0,1-1.34-4.33Z" transform="translate(-4.36 -4.52)"/><path class="cls-5" d="M228.67,157.27a13,13,0,0,0,.58,4.11,8.93,8.93,0,0,0,1.54,2.9A6.2,6.2,0,0,0,233,166a5.77,5.77,0,0,0,2.46.56,5.18,5.18,0,0,0,2.32-.51,6.23,6.23,0,0,0,1.82-1.35,7.37,7.37,0,0,0,1.29-1.91,9.39,9.39,0,0,0,.73-2.21h3.57A13.19,13.19,0,0,1,244,164a10.09,10.09,0,0,1-2,2.79,9.12,9.12,0,0,1-2.87,1.87,9.51,9.51,0,0,1-3.69.69,10.64,10.64,0,0,1-4.25-.82,8.75,8.75,0,0,1-3.24-2.38,11,11,0,0,1-2.06-3.81,16.54,16.54,0,0,1-.73-5.09,13.55,13.55,0,0,1,.31-2.89,12.6,12.6,0,0,1,.91-2.7,11.31,11.31,0,0,1,1.48-2.35,9.7,9.7,0,0,1,2-1.86,9.54,9.54,0,0,1,2.53-1.23,9.82,9.82,0,0,1,3-.44,11.09,11.09,0,0,1,3.69.57,9.21,9.21,0,0,1,2.83,1.57,9,9,0,0,1,2,2.39,13,13,0,0,1,1.29,3h-3.65a7.69,7.69,0,0,0-2.36-3.62,6,6,0,0,0-3.84-1.18,5.33,5.33,0,0,0-2.72.71,7,7,0,0,0-2.12,1.9,9,9,0,0,0-1.38,2.78A11.27,11.27,0,0,0,228.67,157.27Z" transform="translate(-4.36 -4.52)"/><path class="cls-5" d="M263,146.38v2.86H250.92v6.52H262.3v2.86H250.92v7.26h12.63v2.84H247.4V146.38Z" transform="translate(-4.36 -4.52)"/><path class="cls-5" d="M269.85,146.38l10,16.91V146.38h3.52v22.34h-4.12l-9.95-16.91v16.91h-3.52V146.38Z" transform="translate(-4.36 -4.52)"/><path class="cls-5" d="M303.07,146.38v2.86h-7.15v19.48h-3.51V149.23h-7.15v-2.86Z" transform="translate(-4.36 -4.52)"/><path class="cls-5" d="M320.56,146.38v2.86H308.45v6.52h11.38v2.86H308.45v7.26h12.63v2.84H304.93V146.38Z" transform="translate(-4.36 -4.52)"/><path class="cls-5" d="M339.84,152.9a6.48,6.48,0,0,1-.67,2.87,6.22,6.22,0,0,1-2,2.34A3.56,3.56,0,0,1,339.1,160a4.5,4.5,0,0,1,.36,1.24,9.29,9.29,0,0,1,.09,1.32v3.27a4.57,4.57,0,0,0,.25,1.46,9.42,9.42,0,0,0,.65,1.48h-3.74a3.68,3.68,0,0,1-.33-.73,5.85,5.85,0,0,1-.2-.77,6.15,6.15,0,0,1-.09-.72q0-.34,0-.59v-3.43a3.45,3.45,0,0,0-.18-1.1,2.64,2.64,0,0,0-.58-1,2.84,2.84,0,0,0-1-.69,4.12,4.12,0,0,0-1.55-.26h-5.94v9.25h-3.5V146.38h9.44a7.49,7.49,0,0,1,3,.58,7,7,0,0,1,2.23,1.52,6.39,6.39,0,0,1,1.37,2.09A6.22,6.22,0,0,1,339.84,152.9Zm-13.06,3.77h5.94a3.29,3.29,0,0,0,1.37-.29,3.6,3.6,0,0,0,1.14-.8,4,4,0,0,0,.78-1.21,4,4,0,0,0,0-2.95,3.38,3.38,0,0,0-.75-1.15,3.55,3.55,0,0,0-1.14-.76,3.65,3.65,0,0,0-1.43-.28h-5.94Z" transform="translate(-4.36 -4.52)"/></svg>