<svg id="Layer_1" data-name="Layer 1" xmlns="http://www.w3.org/2000/svg" viewBox="0 0 224.52 185.04"><defs><style>.cls-1{fill:none;stroke:#231f20;stroke-miterlimit:10;stroke-width:16px;}.cls-2{fill:#c05647;}</style></defs><title>digitorium-thumb-color</title><path class="cls-1" d="M130,171.5" transform="translate(-74.55 -10.36)"/><rect class="cls-2" x="108.16" y="0.04" width="116.34" height="11.51"/><path class="cls-2" d="M159.12,19.91c-5.71-6.34-16.7-9.55-32.66-9.55H74.55V110.67h55.08c15.12,0,25.37-3.72,30.47-11.05s7.61-21.89,7.61-43.43C167.71,38.44,164.82,26.23,159.12,19.91Zm-71,.91h38.22c12.4,0,20.32,2.35,23.54,7s4.91,16.13,4.91,34c0,16.25-1.91,26.84-5.66,31.48s-12.25,6.94-25.31,6.94H88.08Z" transform="translate(-74.55 -10.36)"/><path class="cls-2" d="M271.06,39.1c-12.8,0-21.83,3.85-26.85,11.43C241.13,42.94,233,39.1,220,39.1c-12,0-20.45,3.63-25.09,10.78l.23-9.76h-12.4v70.55H195.1v-40c0-14.89,7.45-22.13,22.76-22.13,11.21,0,16.66,4.24,16.66,13l.16,3.18v46h12.39V69.94c0-8.36,1.56-14.07,4.64-17s9.13-4.41,18-4.41c6.62,0,11.16,1.06,13.5,3.15s3.49,6.13,3.49,12.07v46.92H299v-46C299,47.71,289.63,39.1,271.06,39.1Z" transform="translate(-74.55 -10.36)"/><path class="cls-2" d="M298.94,123h0Z" transform="translate(-74.55 -10.36)"/><path class="cls-2" d="M298.94,123Z" transform="translate(-74.55 -10.36)"/><path class="cls-2" d="M290.83,122.7H275.71c-26.85.65-69.58,5.17-88.9,26.1-19.32-20.93-62-25.45-88.89-26.1H82.78c-4.62.12-7.6.3-8.23.35h0V195.4H299.07V123C298.44,123,295.46,122.82,290.83,122.7ZM106.25,178.19a7.69,7.69,0,0,1-5.83,2.18H93.87v-15.9h6.84a6.86,6.86,0,0,1,7.63,7.62A8.47,8.47,0,0,1,106.25,178.19Zm13.87,2.18h-3.31v-15.9h3.31ZM142.3,180a21,21,0,0,1-5.16.77,8.65,8.65,0,0,1-6.32-2.17,9.77,9.77,0,0,1,0-12.37,8.62,8.62,0,0,1,6.29-2.16,22.25,22.25,0,0,1,5.18.61v2.59a15.79,15.79,0,0,0-4.89-1,4.85,4.85,0,0,0-3.9,1.61,6.83,6.83,0,0,0-1.37,4.57,6.44,6.44,0,0,0,1.47,4.49,5.2,5.2,0,0,0,4.06,1.63,6.56,6.56,0,0,0,1.33-.16v-5.23h3.31Zm12.51.38h-3.31v-15.9h3.31Zm22.44-13.72h-5.69v13.72h-3.32V166.65h-5.69v-2.18h14.71Zm20.67,11.87a8,8,0,0,1-6,2.25,7.62,7.62,0,0,1-5.79-2.28,9.58,9.58,0,0,1,0-12.16,8.79,8.79,0,0,1,11.76,0,9.59,9.59,0,0,1,0,12.19Zm19.54,1.85-3.94-6.5h-1.83v6.5h-3.12v-15.9h6q4.84,0,4.84,3.94a4.66,4.66,0,0,1-.82,2.68,5.26,5.26,0,0,1-2.26,1.85l5.2,7.42Zm15.1,0h-3.31v-15.9h3.31Zm21.84-6.13a10.34,10.34,0,0,1-.42,3.36,4.41,4.41,0,0,1-1.53,2,6.49,6.49,0,0,1-4.07,1.17,7.17,7.17,0,0,1-4.4-1.25,4.63,4.63,0,0,1-1.61-2,9.39,9.39,0,0,1-.46-3.28v-9.73h3.31v9.74a5.67,5.67,0,0,0,.76,3.33,2.86,2.86,0,0,0,2.46,1,2.73,2.73,0,0,0,2.35-1,5.35,5.35,0,0,0,.73-3.15v-10h2.88Zm25.34,6.13h-3.05v-12l-3.88,10.94h-2.66l-3.8-11.1v12.16h-2.6v-15.9h4.38L272,175.65l3.94-11.18h3.85Z" transform="translate(-74.55 -10.36)"/><path class="cls-2" d="M192.06,166.25a3.92,3.92,0,0,0-3.31,1.68,8.71,8.71,0,0,0,0,9,3.84,3.84,0,0,0,3.25,1.69,4,4,0,0,0,3.37-1.67,7.42,7.42,0,0,0,1.24-4.53,7.28,7.28,0,0,0-1.25-4.45A3.91,3.91,0,0,0,192.06,166.25Z" transform="translate(-74.55 -10.36)"/><path class="cls-2" d="M102.08,167a8.24,8.24,0,0,0-2.91-.4h-2v11.46h2.47a4.94,4.94,0,0,0,3.89-1.45,6.45,6.45,0,0,0,1.28-4.39,6.59,6.59,0,0,0-1-3.79A3.75,3.75,0,0,0,102.08,167Z" transform="translate(-74.55 -10.36)"/><path class="cls-2" d="M212.86,166.65h-1.15v5h.76q3.6,0,3.6-2.91Q216.07,166.65,212.86,166.65Z" transform="translate(-74.55 -10.36)"/></svg>