<svg id="Layer_1" data-name="Layer 1" xmlns="http://www.w3.org/2000/svg" viewBox="0 0 769.13 117.29"><defs><style>.cls-1{fill:#c05647;}.cls-2{fill:#414142;}</style></defs><title>Untitled-2</title><path class="cls-1" d="M-177,1477" transform="translate(217.32 -1359.74)"/><path class="cls-1" d="M-53.9,1441.76h0Z" transform="translate(217.32 -1359.74)"/><path class="cls-1" d="M-53.93,1441.76Z" transform="translate(217.32 -1359.74)"/><path class="cls-1" d="M-59.9,1441.51h-11c-19.54.48-50.64,3.77-64.71,19-14.06-15.23-45.16-18.52-64.7-19h-11c-3.37.08-5.53.22-6,.25h0V1477H-53.9v-35.27C-54.36,1441.73-56.53,1441.59-59.9,1441.51Z" transform="translate(217.32 -1359.74)"/><rect class="cls-1" x="78.73" y="0.03" width="84.68" height="8.38"/><path class="cls-1" d="M-155.77,1366.69c-4.16-4.61-12.16-7-23.77-7h-37.78v73h40.09c11,0,18.47-2.71,22.18-8s5.54-15.93,5.54-31.61C-149.52,1380.18-151.62,1371.29-155.77,1366.69Zm-51.71.66h27.82c9,0,14.79,1.71,17.14,5.09s3.58,11.74,3.58,24.74c0,11.83-1.39,19.53-4.12,22.91s-8.92,5.05-18.43,5.05h-26Z" transform="translate(217.32 -1359.74)"/><path class="cls-1" d="M-74.29,1380.66c-9.31,0-15.89,2.8-19.54,8.32-2.24-5.52-8.17-8.32-17.64-8.32-8.74,0-14.88,2.64-18.27,7.85l.17-7.1h-9v51.35h9v-29.12c0-10.84,5.42-16.11,16.57-16.11,8.16,0,12.13,3.09,12.13,9.45l.12,2.31v33.46h9V1403.1c0-6.08,1.14-10.24,3.38-12.37s6.65-3.21,13.07-3.21c4.82,0,8.12.77,9.82,2.29s2.54,4.46,2.54,8.78v34.15h9v-33.46C-53.92,1386.93-60.77,1380.66-74.29,1380.66Z" transform="translate(217.32 -1359.74)"/><path class="cls-2" d="M-16.17,1429.83V1372H8.71q13.44,0,20.59,7.13t7.15,20.57q0,14.3-7.58,22.21t-21.21,7.91Zm12-8.2h9q9.49,0,14.16-5.25t4.67-16q0-8.28-3.75-13.79a13.64,13.64,0,0,0-6.21-5.23q-3.63-1.44-10.59-1.45H-4.14Z" transform="translate(217.32 -1359.74)"/><path class="cls-2" d="M55.26,1429.83V1372h12v57.81Z" transform="translate(217.32 -1359.74)"/><path class="cls-2" d="M136,1428.46a76.48,76.48,0,0,1-18.75,2.81q-15,0-23-7.87t-8-22.56q0-14.57,8-22.42t22.87-7.85a80.9,80.9,0,0,1,18.83,2.23v9.41q-10.82-3.71-17.77-3.71-9.18,0-14.18,5.86T99,1401q0,10.39,5.35,16.31t14.77,5.92a23.87,23.87,0,0,0,4.84-.59v-19h12Z" transform="translate(217.32 -1359.74)"/><path class="cls-2" d="M157.44,1429.83V1372h12v57.81Z" transform="translate(217.32 -1359.74)"/><path class="cls-2" d="M206.3,1429.83v-49.88h-20.7V1372h53.48v7.93h-20.7v49.88Z" transform="translate(217.32 -1359.74)"/><path class="cls-2" d="M280.51,1431.27q-13.16,0-21.05-8.28t-7.89-22.07q0-13.95,7.93-22.15t21.41-8.2q13.4,0,21.35,8.2t7.95,22q0,14.14-7.95,22.3T280.51,1431.27Zm.16-8a14.45,14.45,0,0,0,12.25-6.07q4.51-6.07,4.51-16.46,0-10.08-4.53-16.17a14.9,14.9,0,0,0-24,0q-4.51,6.09-4.51,16.29t4.49,16.27A14,14,0,0,0,280.66,1423.31Z" transform="translate(217.32 -1359.74)"/><path class="cls-2" d="M329,1429.83V1372h21.64q17.62,0,17.62,14.34a17,17,0,0,1-3,9.75,19.14,19.14,0,0,1-8.22,6.74l18.91,27H361.32L347,1406.2h-6.64v23.63Zm11.33-31.56h2.77q13.09,0,13.09-10.59,0-7.73-11.68-7.73h-4.18Z" transform="translate(217.32 -1359.74)"/><path class="cls-2" d="M392.21,1429.83V1372h12v57.81Z" transform="translate(217.32 -1359.74)"/><path class="cls-2" d="M426.27,1372h12v35.43q0,8.4,2.77,12.13t8.95,3.73q5.9,0,8.54-3.55t2.64-11.45V1372h10.47v35.51q0,8-1.52,12.21a16.05,16.05,0,0,1-5.55,7.29q-5.51,4.26-14.8,4.26-10,0-16-4.53a16.82,16.82,0,0,1-5.84-7.4q-1.66-4.28-1.66-11.93Z" transform="translate(217.32 -1359.74)"/><path class="cls-2" d="M493.64,1429.83V1372h15.94l13.91,40.66L537.82,1372h14v57.81H540.71V1386.2L526.61,1426h-9.69l-13.83-40.35v44.22Z" transform="translate(217.32 -1359.74)"/><path class="cls-2" d="M-11.09,1452.13v9.53a5.2,5.2,0,0,0,.44,2.33,3.44,3.44,0,0,0,1.44,1.43,4.64,4.64,0,0,0,2.32.56,5.24,5.24,0,0,0,2.47-.53A3.36,3.36,0,0,0-2.95,1464a5.7,5.7,0,0,0,.47-2.55v-9.32H.69v9.73a6.47,6.47,0,0,1-2,5.08,8.11,8.11,0,0,1-5.6,1.78,9,9,0,0,1-3.94-.81,5.74,5.74,0,0,1-2.55-2.34,7.08,7.08,0,0,1-.88-3.59v-9.84Z" transform="translate(217.32 -1359.74)"/><path class="cls-2" d="M10.15,1457.34a3.61,3.61,0,0,1,2.81,1.15,4.35,4.35,0,0,1,1,3v7H11.14v-6.67a2.58,2.58,0,0,0-.51-1.69,1.7,1.7,0,0,0-1.39-.62,2.21,2.21,0,0,0-1.25.39,5.9,5.9,0,0,0-1.29,1.31v7.28H3.81v-10.95H6.7v1.54a5.13,5.13,0,0,1,1.63-1.34A4.14,4.14,0,0,1,10.15,1457.34Z" transform="translate(217.32 -1359.74)"/><path class="cls-2" d="M18.33,1452.49a1.64,1.64,0,0,1,1.63,1.63,1.61,1.61,0,0,1-.47,1.14,1.57,1.57,0,0,1-2.3,0,1.59,1.59,0,0,1-.49-1.14,1.54,1.54,0,0,1,.49-1.15A1.59,1.59,0,0,1,18.33,1452.49Zm1.44,5.06v10.95H16.89v-10.95Z" transform="translate(217.32 -1359.74)"/><path class="cls-2" d="M24.45,1457.55l2.63,6.34,2.57-6.34h3.07l-4.95,11.16H26.37l-5-11.16Z" transform="translate(217.32 -1359.74)"/><path class="cls-2" d="M39.1,1457.34a4.91,4.91,0,0,1,3.82,1.55,6.12,6.12,0,0,1,1.41,4.28v.43H36.58a3.37,3.37,0,0,0,1.1,2.26,3.75,3.75,0,0,0,2.53.79,5.62,5.62,0,0,0,2-.36,8.68,8.68,0,0,0,2-1.08v2.14a7.87,7.87,0,0,1-4.66,1.36,5.89,5.89,0,0,1-4.23-1.56,5.45,5.45,0,0,1-1.64-4.15,5.65,5.65,0,0,1,1.52-4.08A5.23,5.23,0,0,1,39.1,1457.34Zm2.52,4.51a3.17,3.17,0,0,0-.73-1.87,2.15,2.15,0,0,0-1.68-.67,2.4,2.4,0,0,0-1.75.64,3.18,3.18,0,0,0-.84,1.9Z" transform="translate(217.32 -1359.74)"/><path class="cls-2" d="M52.85,1457.34a2.67,2.67,0,0,1,1.13.26,6.3,6.3,0,0,1,1.29.87l-1,2.52a3.79,3.79,0,0,0-2-.94,2.16,2.16,0,0,0-1.32.5,3.56,3.56,0,0,0-1,1.32,3.77,3.77,0,0,0-.39,1.64v5H46.59v-10.95h2.88v2.79h0A7.6,7.6,0,0,1,51.1,1458,2.57,2.57,0,0,1,52.85,1457.34Z" transform="translate(217.32 -1359.74)"/><path class="cls-2" d="M60.17,1457.34a6.8,6.8,0,0,1,1.7.21,8.59,8.59,0,0,1,1.69.65v2.31a8.12,8.12,0,0,0-1.76-.85,5.23,5.23,0,0,0-1.68-.32,1.74,1.74,0,0,0-1,.23.76.76,0,0,0-.35.67.67.67,0,0,0,.29.49,10.92,10.92,0,0,0,1.61.9,9.83,9.83,0,0,1,2.63,1.75,2.71,2.71,0,0,1,.76,1.93,3.05,3.05,0,0,1-1.1,2.49,4.54,4.54,0,0,1-3,.91,8.85,8.85,0,0,1-2.19-.26,7.33,7.33,0,0,1-1.68-.62v-2.4a7.72,7.72,0,0,0,3.55,1.17,2.38,2.38,0,0,0,1.2-.26.79.79,0,0,0,.46-.7.75.75,0,0,0-.16-.47,2.15,2.15,0,0,0-.49-.43q-.33-.22-2.05-1.07a5.85,5.85,0,0,1-2-1.38,2.63,2.63,0,0,1-.63-1.76,2.77,2.77,0,0,1,1.14-2.32A4.8,4.8,0,0,1,60.17,1457.34Z" transform="translate(217.32 -1359.74)"/><path class="cls-2" d="M67.85,1452.49a1.64,1.64,0,0,1,1.63,1.63,1.61,1.61,0,0,1-.47,1.14,1.57,1.57,0,0,1-2.3,0,1.59,1.59,0,0,1-.49-1.14,1.54,1.54,0,0,1,.49-1.15A1.59,1.59,0,0,1,67.85,1452.49Zm1.44,5.06v10.95H66.4v-10.95Z" transform="translate(217.32 -1359.74)"/><path class="cls-2" d="M75.26,1454.64h.23v2.91h3.75v2.18H75.5v5.05a1.64,1.64,0,0,0,.45,1.2,1.62,1.62,0,0,0,1.22.46,4.93,4.93,0,0,0,2.32-.73V1468a7.25,7.25,0,0,1-2.93.69,4,4,0,0,1-2.89-1,3.63,3.63,0,0,1-1-2.73v-5.24H70.92v-.47Z" transform="translate(217.32 -1359.74)"/><path class="cls-2" d="M82.82,1457.55l2.59,5.88,2.63-5.88h3.09L83.57,1474H80.48l3.48-7.54-4.25-8.93Z" transform="translate(217.32 -1359.74)"/><path class="cls-2" d="M108,1451.91a9.83,9.83,0,0,1,4.58,1,8.27,8.27,0,0,1,0,14.66,10.35,10.35,0,0,1-9.26,0,8.1,8.1,0,0,1-4.4-7.29,8.23,8.23,0,0,1,1.16-4.23,8.05,8.05,0,0,1,3.2-3.08A9.75,9.75,0,0,1,108,1451.91Zm-5.78,8.4a5.83,5.83,0,0,0,.74,2.93,5.13,5.13,0,0,0,2.06,2,6.16,6.16,0,0,0,3,.71,5.69,5.69,0,0,0,4.14-1.58,5.45,5.45,0,0,0,1.62-4.08,5.9,5.9,0,0,0-.73-2.94,5.06,5.06,0,0,0-2.06-2,6.6,6.6,0,0,0-6,0,5,5,0,0,0-2,2A6,6,0,0,0,102.24,1460.32Z" transform="translate(217.32 -1359.74)"/><path class="cls-2" d="M124.25,1451.91a6,6,0,0,1,1,.09,3.54,3.54,0,0,1,.86.25v2.34a4.9,4.9,0,0,0-1.3-.16,2,2,0,0,0-1.55.54,2.57,2.57,0,0,0-.51,1.79v.79h1.88v2.18h-1.87v8.77H119.9v-8.77h-1.56v-2.18h1.56v-.82a5,5,0,0,1,1.19-3.52A4.07,4.07,0,0,1,124.25,1451.91Z" transform="translate(217.32 -1359.74)"/><path class="cls-2" d="M140.08,1452.13l7.23,16.37H144l-1.7-4H135l-1.58,4H130.1l6.75-16.37Zm-4.12,10h5.29l-2.77-6.48Z" transform="translate(217.32 -1359.74)"/><path class="cls-2" d="M151.85,1452.13v16.37H149v-16.37Z" transform="translate(217.32 -1359.74)"/><path class="cls-2" d="M158.76,1457.34a5,5,0,0,1,3.22.9,3,3,0,0,1,1.11,2.5v5.36q0,.62.5.62a1.52,1.52,0,0,0,.59-.18,2.62,2.62,0,0,0,.64-.42v1.66a5.4,5.4,0,0,1-2.77.93,2.27,2.27,0,0,1-1.19-.26,1.42,1.42,0,0,1-.58-.91,5.7,5.7,0,0,1-3.32,1.17,2.87,2.87,0,0,1-2-.8,2.53,2.53,0,0,1-.85-1.91,3,3,0,0,1,.84-2.24,7.17,7.17,0,0,1,3-1.43l2.33-.68v-.5q0-1.61-1.95-1.61a4.66,4.66,0,0,0-2,.46,5.62,5.62,0,0,0-1.79,1.35v-2.59A6.65,6.65,0,0,1,158.76,1457.34Zm-1.76,8.23a1.27,1.27,0,0,0,.38,1,1.31,1.31,0,0,0,.94.36,2.84,2.84,0,0,0,1.9-.87v-2.88a13.4,13.4,0,0,0-1.89.77,3.46,3.46,0,0,0-1,.74A1.35,1.35,0,0,0,157,1465.57Z" transform="translate(217.32 -1359.74)"/><path class="cls-2" d="M169.29,1452.13v6.13a4.85,4.85,0,0,1,2.89-.91,5,5,0,0,1,2.62.71,4.8,4.8,0,0,1,1.83,2,6.25,6.25,0,0,1,.65,2.87,5.63,5.63,0,0,1-1.61,4.25,6.05,6.05,0,0,1-4.39,1.55,13.27,13.27,0,0,1-4.87-.93v-15.66Zm0,14.09a6.67,6.67,0,0,0,2.16.32,2.56,2.56,0,0,0,2.1-1,4.16,4.16,0,0,0,.78-2.68,3.67,3.67,0,0,0-.79-2.47,2.59,2.59,0,0,0-2.07-.92,2.7,2.7,0,0,0-1.1.22,4.84,4.84,0,0,0-1.08.69Z" transform="translate(217.32 -1359.74)"/><path class="cls-2" d="M183.52,1457.34a5,5,0,0,1,3.22.9,3,3,0,0,1,1.11,2.5v5.36q0,.62.5.62a1.52,1.52,0,0,0,.59-.18,2.62,2.62,0,0,0,.64-.42v1.66a5.4,5.4,0,0,1-2.77.93,2.27,2.27,0,0,1-1.19-.26,1.42,1.42,0,0,1-.58-.91,5.7,5.7,0,0,1-3.32,1.17,2.87,2.87,0,0,1-2-.8,2.53,2.53,0,0,1-.85-1.91,3,3,0,0,1,.84-2.24,7.17,7.17,0,0,1,3-1.43l2.33-.68v-.5q0-1.61-1.95-1.61a4.66,4.66,0,0,0-2,.46,5.62,5.62,0,0,0-1.79,1.35v-2.59A6.65,6.65,0,0,1,183.52,1457.34Zm-1.76,8.23a1.27,1.27,0,0,0,.38,1,1.31,1.31,0,0,0,.94.36,2.84,2.84,0,0,0,1.9-.87v-2.88a13.4,13.4,0,0,0-1.89.77,3.46,3.46,0,0,0-1,.74A1.35,1.35,0,0,0,181.76,1465.57Z" transform="translate(217.32 -1359.74)"/><path class="cls-2" d="M197.51,1457.34a3.72,3.72,0,0,1,2.14.59,3.62,3.62,0,0,1,1.31,1.59,6.79,6.79,0,0,1,1.85-1.66,4,4,0,0,1,2-.52,3.67,3.67,0,0,1,2.8,1.13,4.22,4.22,0,0,1,1.07,3v7h-2.88V1462a3,3,0,0,0-.49-1.79,1.65,1.65,0,0,0-1.41-.66,3.31,3.31,0,0,0-2.54,1.7v7.28H198.5v-6.57a2.73,2.73,0,0,0-.52-1.76,1.69,1.69,0,0,0-1.38-.64,2.22,2.22,0,0,0-1.29.4,5.78,5.78,0,0,0-1.25,1.29v7.28h-2.88v-10.95h2.88v1.54a5.78,5.78,0,0,1,1.59-1.32A3.93,3.93,0,0,1,197.51,1457.34Z" transform="translate(217.32 -1359.74)"/><path class="cls-2" d="M215.42,1457.34a5,5,0,0,1,3.22.9,3,3,0,0,1,1.11,2.5v5.36q0,.62.5.62a1.52,1.52,0,0,0,.59-.18,2.62,2.62,0,0,0,.64-.42v1.66a5.4,5.4,0,0,1-2.77.93,2.27,2.27,0,0,1-1.19-.26,1.42,1.42,0,0,1-.58-.91,5.7,5.7,0,0,1-3.32,1.17,2.87,2.87,0,0,1-2-.8,2.53,2.53,0,0,1-.85-1.91,3,3,0,0,1,.84-2.24,7.17,7.17,0,0,1,3-1.43l2.33-.68v-.5q0-1.61-1.95-1.61a4.66,4.66,0,0,0-2,.46,5.62,5.62,0,0,0-1.79,1.35v-2.59A6.65,6.65,0,0,1,215.42,1457.34Zm-1.76,8.23a1.27,1.27,0,0,0,.38,1,1.31,1.31,0,0,0,.94.36,2.84,2.84,0,0,0,1.9-.87v-2.88a13.4,13.4,0,0,0-1.89.77,3.46,3.46,0,0,0-1,.74A1.35,1.35,0,0,0,213.66,1465.57Z" transform="translate(217.32 -1359.74)"/><path class="cls-2" d="M237,1452.13a9.66,9.66,0,0,1,4.55,1,7.56,7.56,0,0,1,3.09,2.93,8.26,8.26,0,0,1,1.1,4.24,8.16,8.16,0,0,1-1.11,4.26,7.44,7.44,0,0,1-3.15,2.88,10.32,10.32,0,0,1-4.68,1H230.1v-16.37Zm-.33,13.9a5.72,5.72,0,0,0,4.21-1.58,6.22,6.22,0,0,0,0-8.31,6,6,0,0,0-4.31-1.54h-3.26V1466Z" transform="translate(217.32 -1359.74)"/><path class="cls-2" d="M249.83,1452.49a1.64,1.64,0,0,1,1.63,1.63,1.61,1.61,0,0,1-.47,1.14,1.57,1.57,0,0,1-2.3,0,1.59,1.59,0,0,1-.49-1.14,1.54,1.54,0,0,1,.49-1.15A1.59,1.59,0,0,1,249.83,1452.49Zm1.44,5.06v10.95h-2.88v-10.95Z" transform="translate(217.32 -1359.74)"/><path class="cls-2" d="M264.35,1457.55v2h-1.87a3.93,3.93,0,0,1,.64,1,2.84,2.84,0,0,1,.18,1,3.51,3.51,0,0,1-1,2.4,4.8,4.8,0,0,1-3,1.23,5.59,5.59,0,0,0-1.51.32.59.59,0,0,0-.37.56q0,.34.45.52a7.48,7.48,0,0,0,1.45.35,9,9,0,0,1,3.64,1.22,2.53,2.53,0,0,1,1.17,2.17,3,3,0,0,1-1.42,2.67,7.43,7.43,0,0,1-4.08.93,7.86,7.86,0,0,1-4-.88,2.65,2.65,0,0,1-1.49-2.36q0-2.09,2.87-2.88-1.24-.54-1.24-1.42,0-1.15,1.88-1.58v0a3.93,3.93,0,0,1-2-1.25,3.18,3.18,0,0,1-.76-2.11,3.5,3.5,0,0,1,1.34-2.85,5.37,5.37,0,0,1,3.49-1.08Zm-8.5,13.1q0,1.46,2.93,1.46a4.08,4.08,0,0,0,2-.4,1.2,1.2,0,0,0,.72-1.06,1.18,1.18,0,0,0-.81-1.1,5.74,5.74,0,0,0-2.3-.37,3.53,3.53,0,0,0-1.82.42A1.21,1.21,0,0,0,255.85,1470.65Zm.69-9.14a1.87,1.87,0,0,0,.6,1.42,2.07,2.07,0,0,0,1.47.57,2,2,0,0,0,1.46-.59,2.06,2.06,0,0,0,.57-1.49,1.76,1.76,0,0,0-.6-1.35,2.06,2.06,0,0,0-1.44-.54,2,2,0,0,0-1.47.59A1.9,1.9,0,0,0,256.54,1461.51Z" transform="translate(217.32 -1359.74)"/><path class="cls-2" d="M267.54,1452.49a1.64,1.64,0,0,1,1.63,1.63,1.61,1.61,0,0,1-.47,1.14,1.57,1.57,0,0,1-2.3,0,1.59,1.59,0,0,1-.49-1.14,1.54,1.54,0,0,1,.49-1.15A1.59,1.59,0,0,1,267.54,1452.49Zm1.44,5.06v10.95H266.1v-10.95Z" transform="translate(217.32 -1359.74)"/><path class="cls-2" d="M275,1454.64h.23v2.91h3.75v2.18H275.2v5.05a1.64,1.64,0,0,0,.45,1.2,1.62,1.62,0,0,0,1.22.46,4.93,4.93,0,0,0,2.32-.73V1468a7.25,7.25,0,0,1-2.93.69,4,4,0,0,1-2.89-1,3.63,3.63,0,0,1-1-2.73v-5.24h-1.71v-.47Z" transform="translate(217.32 -1359.74)"/><path class="cls-2" d="M284.76,1457.34a5,5,0,0,1,3.22.9,3,3,0,0,1,1.11,2.5v5.36q0,.62.5.62a1.52,1.52,0,0,0,.59-.18,2.62,2.62,0,0,0,.64-.42v1.66a5.4,5.4,0,0,1-2.77.93,2.27,2.27,0,0,1-1.19-.26,1.42,1.42,0,0,1-.58-.91,5.7,5.7,0,0,1-3.32,1.17,2.87,2.87,0,0,1-2-.8,2.53,2.53,0,0,1-.85-1.91,3,3,0,0,1,.84-2.24,7.17,7.17,0,0,1,3-1.43l2.33-.68v-.5q0-1.61-1.95-1.61a4.66,4.66,0,0,0-2,.46,5.62,5.62,0,0,0-1.79,1.35v-2.59A6.65,6.65,0,0,1,284.76,1457.34Zm-1.76,8.23a1.27,1.27,0,0,0,.38,1,1.31,1.31,0,0,0,.94.36,2.84,2.84,0,0,0,1.9-.87v-2.88a13.4,13.4,0,0,0-1.89.77,3.46,3.46,0,0,0-1,.74A1.35,1.35,0,0,0,283,1465.57Z" transform="translate(217.32 -1359.74)"/><path class="cls-2" d="M295.39,1452.13v16.37h-2.88v-16.37Z" transform="translate(217.32 -1359.74)"/><path class="cls-2" d="M308.56,1452.13V1459h8.5v-6.89h3.16v16.37h-3.16v-6.91h-8.5v6.91H305.4v-16.37Z" transform="translate(217.32 -1359.74)"/><path class="cls-2" d="M326.24,1457.55v6.77a2.26,2.26,0,0,0,.53,1.62,1.87,1.87,0,0,0,1.41.56,2.48,2.48,0,0,0,1.39-.45,3.21,3.21,0,0,0,1.08-1.25v-7.25h2.88v10.95h-2.88V1467a4.55,4.55,0,0,1-3.37,1.7,3.71,3.71,0,0,1-2.84-1.15,4.21,4.21,0,0,1-1.08-3v-7Z" transform="translate(217.32 -1359.74)"/><path class="cls-2" d="M342.77,1457.34a3.72,3.72,0,0,1,2.14.59,3.62,3.62,0,0,1,1.31,1.59,6.79,6.79,0,0,1,1.85-1.66,4,4,0,0,1,2-.52,3.67,3.67,0,0,1,2.8,1.13,4.22,4.22,0,0,1,1.07,3v7h-2.88V1462a3,3,0,0,0-.49-1.79,1.65,1.65,0,0,0-1.41-.66,3.31,3.31,0,0,0-2.54,1.7v7.28h-2.87v-6.57a2.73,2.73,0,0,0-.52-1.76,1.69,1.69,0,0,0-1.38-.64,2.22,2.22,0,0,0-1.29.4,5.78,5.78,0,0,0-1.25,1.29v7.28h-2.88v-10.95h2.88v1.54a5.78,5.78,0,0,1,1.59-1.32A3.93,3.93,0,0,1,342.77,1457.34Z" transform="translate(217.32 -1359.74)"/><path class="cls-2" d="M360.67,1457.34a5,5,0,0,1,3.22.9,3,3,0,0,1,1.11,2.5v5.36q0,.62.5.62a1.52,1.52,0,0,0,.59-.18,2.62,2.62,0,0,0,.64-.42v1.66a5.4,5.4,0,0,1-2.77.93,2.27,2.27,0,0,1-1.19-.26,1.42,1.42,0,0,1-.58-.91,5.7,5.7,0,0,1-3.32,1.17,2.87,2.87,0,0,1-2-.8A2.53,2.53,0,0,1,356,1466a3,3,0,0,1,.84-2.24,7.17,7.17,0,0,1,3-1.43l2.33-.68v-.5q0-1.61-1.95-1.61a4.66,4.66,0,0,0-2,.46,5.62,5.62,0,0,0-1.79,1.35v-2.59A6.65,6.65,0,0,1,360.67,1457.34Zm-1.76,8.23a1.27,1.27,0,0,0,.38,1,1.31,1.31,0,0,0,.94.36,2.84,2.84,0,0,0,1.9-.87v-2.88a13.4,13.4,0,0,0-1.89.77,3.46,3.46,0,0,0-1,.74A1.35,1.35,0,0,0,358.92,1465.57Z" transform="translate(217.32 -1359.74)"/><path class="cls-2" d="M374.67,1457.34a3.61,3.61,0,0,1,2.81,1.15,4.35,4.35,0,0,1,1,3v7h-2.87v-6.67a2.58,2.58,0,0,0-.51-1.69,1.7,1.7,0,0,0-1.39-.62,2.21,2.21,0,0,0-1.25.39,5.9,5.9,0,0,0-1.29,1.31v7.28h-2.88v-10.95h2.88v1.54a5.13,5.13,0,0,1,1.63-1.34A4.14,4.14,0,0,1,374.67,1457.34Z" transform="translate(217.32 -1359.74)"/><path class="cls-2" d="M382.85,1452.49a1.64,1.64,0,0,1,1.63,1.63,1.61,1.61,0,0,1-.47,1.14,1.57,1.57,0,0,1-2.3,0,1.59,1.59,0,0,1-.49-1.14,1.54,1.54,0,0,1,.49-1.15A1.59,1.59,0,0,1,382.85,1452.49Zm1.44,5.06v10.95H381.4v-10.95Z" transform="translate(217.32 -1359.74)"/><path class="cls-2" d="M390.26,1454.64h.23v2.91h3.75v2.18H390.5v5.05a1.64,1.64,0,0,0,.45,1.2,1.62,1.62,0,0,0,1.22.46,4.93,4.93,0,0,0,2.32-.73V1468a7.25,7.25,0,0,1-2.93.69,4,4,0,0,1-2.89-1,3.63,3.63,0,0,1-1-2.73v-5.24h-1.71v-.47Z" transform="translate(217.32 -1359.74)"/><path class="cls-2" d="M397.66,1452.49a1.64,1.64,0,0,1,1.63,1.63,1.61,1.61,0,0,1-.47,1.14,1.57,1.57,0,0,1-2.3,0,1.59,1.59,0,0,1-.49-1.14,1.54,1.54,0,0,1,.49-1.15A1.59,1.59,0,0,1,397.66,1452.49Zm1.44,5.06v10.95h-2.88v-10.95Z" transform="translate(217.32 -1359.74)"/><path class="cls-2" d="M407,1457.34a4.91,4.91,0,0,1,3.82,1.55,6.12,6.12,0,0,1,1.41,4.28v.43h-7.75a3.37,3.37,0,0,0,1.1,2.26,3.75,3.75,0,0,0,2.53.79,5.62,5.62,0,0,0,2-.36,8.68,8.68,0,0,0,2-1.08v2.14a7.87,7.87,0,0,1-4.66,1.36,5.89,5.89,0,0,1-4.23-1.56,5.45,5.45,0,0,1-1.64-4.15,5.65,5.65,0,0,1,1.52-4.08A5.23,5.23,0,0,1,407,1457.34Zm2.52,4.51a3.17,3.17,0,0,0-.73-1.87,2.15,2.15,0,0,0-1.68-.67,2.4,2.4,0,0,0-1.75.64,3.18,3.18,0,0,0-.84,1.9Z" transform="translate(217.32 -1359.74)"/><path class="cls-2" d="M418,1457.34a6.8,6.8,0,0,1,1.7.21,8.59,8.59,0,0,1,1.69.65v2.31a8.12,8.12,0,0,0-1.76-.85,5.23,5.23,0,0,0-1.68-.32,1.74,1.74,0,0,0-1,.23.76.76,0,0,0-.35.67.67.67,0,0,0,.29.49,10.92,10.92,0,0,0,1.61.9,9.83,9.83,0,0,1,2.63,1.75,2.71,2.71,0,0,1,.76,1.93,3.05,3.05,0,0,1-1.1,2.49,4.54,4.54,0,0,1-3,.91,8.85,8.85,0,0,1-2.19-.26,7.33,7.33,0,0,1-1.68-.62v-2.4a7.72,7.72,0,0,0,3.55,1.17,2.38,2.38,0,0,0,1.2-.26.79.79,0,0,0,.46-.7.75.75,0,0,0-.16-.47,2.15,2.15,0,0,0-.49-.43q-.33-.22-2.05-1.07a5.85,5.85,0,0,1-2-1.38,2.63,2.63,0,0,1-.63-1.76,2.77,2.77,0,0,1,1.14-2.32A4.8,4.8,0,0,1,418,1457.34Z" transform="translate(217.32 -1359.74)"/><path class="cls-2" d="M439.78,1451.91a11.81,11.81,0,0,1,2.73.32,13.8,13.8,0,0,1,2.88,1.08v3a13.59,13.59,0,0,0-2.79-1.25,9.23,9.23,0,0,0-2.68-.39,6.81,6.81,0,0,0-3.15.72,5.29,5.29,0,0,0-2.19,2,5.92,5.92,0,0,0,0,5.86,5.19,5.19,0,0,0,2.18,2,6.93,6.93,0,0,0,3.16.71,8.49,8.49,0,0,0,2.57-.39,18.68,18.68,0,0,0,3.09-1.39v3a14.29,14.29,0,0,1-2.93,1.18,12.32,12.32,0,0,1-3.12.35,10.11,10.11,0,0,1-4.63-1,7.74,7.74,0,0,1-3.21-3,8.09,8.09,0,0,1-1.17-4.25,8.36,8.36,0,0,1,1.2-4.44,8.05,8.05,0,0,1,3.3-3A10.33,10.33,0,0,1,439.78,1451.91Z" transform="translate(217.32 -1359.74)"/><path class="cls-2" d="M453.65,1457.34a6.71,6.71,0,0,1,3.11.71,5.19,5.19,0,0,1,2.16,2,5.63,5.63,0,0,1,.76,2.92,5.88,5.88,0,0,1-.73,3,5.14,5.14,0,0,1-2.16,2,6.71,6.71,0,0,1-3.13.74,6.63,6.63,0,0,1-3.13-.74,5.16,5.16,0,0,1-2.14-2,5.88,5.88,0,0,1-.73-3,5.57,5.57,0,0,1,.77-2.94,5.26,5.26,0,0,1,2.16-2A6.63,6.63,0,0,1,453.65,1457.34Zm-3,5.64a4,4,0,0,0,.8,2.62,2.64,2.64,0,0,0,2.15,1,2.77,2.77,0,0,0,2.21-.94,4,4,0,0,0,.81-2.68,3.72,3.72,0,0,0-.81-2.57,2.82,2.82,0,0,0-2.21-.91,2.67,2.67,0,0,0-2.13,1A3.78,3.78,0,0,0,450.67,1463Z" transform="translate(217.32 -1359.74)"/><path class="cls-2" d="M468.32,1457.34a3.61,3.61,0,0,1,2.81,1.15,4.35,4.35,0,0,1,1,3v7h-2.87v-6.67a2.58,2.58,0,0,0-.51-1.69,1.7,1.7,0,0,0-1.39-.62,2.21,2.21,0,0,0-1.25.39,5.9,5.9,0,0,0-1.29,1.31v7.28H462v-10.95h2.88v1.54a5.13,5.13,0,0,1,1.63-1.34A4.14,4.14,0,0,1,468.32,1457.34Z" transform="translate(217.32 -1359.74)"/><path class="cls-2" d="M479.57,1451.91a6,6,0,0,1,1,.09,3.54,3.54,0,0,1,.86.25v2.34a4.9,4.9,0,0,0-1.3-.16,2,2,0,0,0-1.55.54,2.57,2.57,0,0,0-.51,1.79v.79H480v2.18h-1.87v8.77h-2.88v-8.77h-1.56v-2.18h1.56v-.82a5,5,0,0,1,1.19-3.52A4.07,4.07,0,0,1,479.57,1451.91Z" transform="translate(217.32 -1359.74)"/><path class="cls-2" d="M486.42,1457.34a4.91,4.91,0,0,1,3.82,1.55,6.12,6.12,0,0,1,1.41,4.28v.43H483.9a3.37,3.37,0,0,0,1.1,2.26,3.75,3.75,0,0,0,2.53.79,5.62,5.62,0,0,0,2-.36,8.68,8.68,0,0,0,2-1.08v2.14a7.87,7.87,0,0,1-4.66,1.36,5.89,5.89,0,0,1-4.23-1.56,5.45,5.45,0,0,1-1.64-4.15,5.65,5.65,0,0,1,1.52-4.08A5.23,5.23,0,0,1,486.42,1457.34Zm2.52,4.51a3.17,3.17,0,0,0-.73-1.87,2.15,2.15,0,0,0-1.68-.67,2.4,2.4,0,0,0-1.75.64,3.18,3.18,0,0,0-.84,1.9Z" transform="translate(217.32 -1359.74)"/><path class="cls-2" d="M500.16,1457.34a2.67,2.67,0,0,1,1.13.26,6.3,6.3,0,0,1,1.29.87l-1,2.52a3.79,3.79,0,0,0-2-.94,2.16,2.16,0,0,0-1.32.5,3.56,3.56,0,0,0-1,1.32,3.77,3.77,0,0,0-.39,1.64v5H493.9v-10.95h2.88v2.79h0a7.6,7.6,0,0,1,1.58-2.29A2.57,2.57,0,0,1,500.16,1457.34Z" transform="translate(217.32 -1359.74)"/><path class="cls-2" d="M508.35,1457.34a4.91,4.91,0,0,1,3.82,1.55,6.12,6.12,0,0,1,1.41,4.28v.43h-7.75a3.37,3.37,0,0,0,1.1,2.26,3.75,3.75,0,0,0,2.53.79,5.62,5.62,0,0,0,2-.36,8.68,8.68,0,0,0,2-1.08v2.14a7.87,7.87,0,0,1-4.66,1.36,5.89,5.89,0,0,1-4.23-1.56,5.45,5.45,0,0,1-1.64-4.15,5.65,5.65,0,0,1,1.52-4.08A5.23,5.23,0,0,1,508.35,1457.34Zm2.52,4.51a3.17,3.17,0,0,0-.73-1.87,2.15,2.15,0,0,0-1.68-.67,2.4,2.4,0,0,0-1.75.64,3.18,3.18,0,0,0-.84,1.9Z" transform="translate(217.32 -1359.74)"/><path class="cls-2" d="M522.18,1457.34a3.61,3.61,0,0,1,2.81,1.15,4.35,4.35,0,0,1,1,3v7h-2.87v-6.67a2.58,2.58,0,0,0-.51-1.69,1.7,1.7,0,0,0-1.39-.62,2.21,2.21,0,0,0-1.25.39,5.9,5.9,0,0,0-1.29,1.31v7.28h-2.88v-10.95h2.88v1.54a5.13,5.13,0,0,1,1.63-1.34A4.14,4.14,0,0,1,522.18,1457.34Z" transform="translate(217.32 -1359.74)"/><path class="cls-2" d="M534.08,1457.34a7.92,7.92,0,0,1,3.46.74v2.45a5.82,5.82,0,0,0-2.91-.89,3.5,3.5,0,0,0-2.41,5.88,3.41,3.41,0,0,0,2.51.94,8.13,8.13,0,0,0,3-.77V1468a9.21,9.21,0,0,1-3.5.69,6.13,6.13,0,0,1-4.32-1.52,5.23,5.23,0,0,1-1.66-4,5.63,5.63,0,0,1,1.62-4.21A5.74,5.74,0,0,1,534.08,1457.34Z" transform="translate(217.32 -1359.74)"/><path class="cls-2" d="M544.79,1457.34a4.91,4.91,0,0,1,3.82,1.55,6.12,6.12,0,0,1,1.41,4.28v.43h-7.75a3.37,3.37,0,0,0,1.1,2.26,3.75,3.75,0,0,0,2.53.79,5.62,5.62,0,0,0,2-.36,8.68,8.68,0,0,0,2-1.08v2.14a7.87,7.87,0,0,1-4.66,1.36,5.89,5.89,0,0,1-4.23-1.56,5.45,5.45,0,0,1-1.64-4.15,5.65,5.65,0,0,1,1.52-4.08A5.23,5.23,0,0,1,544.79,1457.34Zm2.52,4.51a3.17,3.17,0,0,0-.73-1.87,2.15,2.15,0,0,0-1.68-.67,2.4,2.4,0,0,0-1.75.64,3.18,3.18,0,0,0-.84,1.9Z" transform="translate(217.32 -1359.74)"/><path class="cls-1" d="M-177,1477" transform="translate(217.32 -1359.74)"/><path class="cls-1" d="M-53.9,1441.76h0Z" transform="translate(217.32 -1359.74)"/><path class="cls-1" d="M-53.93,1441.76Z" transform="translate(217.32 -1359.74)"/><path class="cls-1" d="M-59.9,1441.51h-11c-19.54.48-50.64,3.77-64.71,19-14.06-15.23-45.16-18.52-64.7-19h-11c-3.37.08-5.53.22-6,.25h0V1477H-53.9v-35.27C-54.36,1441.73-56.53,1441.59-59.9,1441.51Z" transform="translate(217.32 -1359.74)"/><rect class="cls-1" x="78.73" y="0.03" width="84.68" height="8.38"/><path class="cls-1" d="M-155.77,1366.69c-4.16-4.61-12.16-7-23.77-7h-37.78v73h40.09c11,0,18.47-2.71,22.18-8s5.54-15.93,5.54-31.61C-149.52,1380.18-151.62,1371.29-155.77,1366.69Zm-51.71.66h27.82c9,0,14.79,1.71,17.14,5.09s3.58,11.74,3.58,24.74c0,11.83-1.39,19.53-4.12,22.91s-8.92,5.05-18.43,5.05h-26Z" transform="translate(217.32 -1359.74)"/><path class="cls-1" d="M-74.29,1380.66c-9.31,0-15.89,2.8-19.54,8.32-2.24-5.52-8.17-8.32-17.64-8.32-8.74,0-14.88,2.64-18.27,7.85l.17-7.1h-9v51.35h9v-29.12c0-10.84,5.42-16.11,16.57-16.11,8.16,0,12.13,3.09,12.13,9.45l.12,2.31v33.46h9V1403.1c0-6.08,1.14-10.24,3.38-12.37s6.65-3.21,13.07-3.21c4.82,0,8.12.77,9.82,2.29s2.54,4.46,2.54,8.78v34.15h9v-33.46C-53.92,1386.93-60.77,1380.66-74.29,1380.66Z" transform="translate(217.32 -1359.74)"/><path class="cls-2" d="M-16.17,1429.83V1372H8.71q13.44,0,20.59,7.13t7.15,20.57q0,14.3-7.58,22.21t-21.21,7.91Zm12-8.2h9q9.49,0,14.16-5.25t4.67-16q0-8.28-3.75-13.79a13.64,13.64,0,0,0-6.21-5.23q-3.63-1.44-10.59-1.45H-4.14Z" transform="translate(217.32 -1359.74)"/><path class="cls-2" d="M55.26,1429.83V1372h12v57.81Z" transform="translate(217.32 -1359.74)"/><path class="cls-2" d="M136,1428.46a76.48,76.48,0,0,1-18.75,2.81q-15,0-23-7.87t-8-22.56q0-14.57,8-22.42t22.87-7.85a80.9,80.9,0,0,1,18.83,2.23v9.41q-10.82-3.71-17.77-3.71-9.18,0-14.18,5.86T99,1401q0,10.39,5.35,16.31t14.77,5.92a23.87,23.87,0,0,0,4.84-.59v-19h12Z" transform="translate(217.32 -1359.74)"/><path class="cls-2" d="M157.44,1429.83V1372h12v57.81Z" transform="translate(217.32 -1359.74)"/><path class="cls-2" d="M206.3,1429.83v-49.88h-20.7V1372h53.48v7.93h-20.7v49.88Z" transform="translate(217.32 -1359.74)"/><path class="cls-2" d="M280.51,1431.27q-13.16,0-21.05-8.28t-7.89-22.07q0-13.95,7.93-22.15t21.41-8.2q13.4,0,21.35,8.2t7.95,22q0,14.14-7.95,22.3T280.51,1431.27Zm.16-8a14.45,14.45,0,0,0,12.25-6.07q4.51-6.07,4.51-16.46,0-10.08-4.53-16.17a14.9,14.9,0,0,0-24,0q-4.51,6.09-4.51,16.29t4.49,16.27A14,14,0,0,0,280.66,1423.31Z" transform="translate(217.32 -1359.74)"/><path class="cls-2" d="M329,1429.83V1372h21.64q17.62,0,17.62,14.34a17,17,0,0,1-3,9.75,19.14,19.14,0,0,1-8.22,6.74l18.91,27H361.32L347,1406.2h-6.64v23.63Zm11.33-31.56h2.77q13.09,0,13.09-10.59,0-7.73-11.68-7.73h-4.18Z" transform="translate(217.32 -1359.74)"/><path class="cls-2" d="M392.21,1429.83V1372h12v57.81Z" transform="translate(217.32 -1359.74)"/><path class="cls-2" d="M426.27,1372h12v35.43q0,8.4,2.77,12.13t8.95,3.73q5.9,0,8.54-3.55t2.64-11.45V1372h10.47v35.51q0,8-1.52,12.21a16.05,16.05,0,0,1-5.55,7.29q-5.51,4.26-14.8,4.26-10,0-16-4.53a16.82,16.82,0,0,1-5.84-7.4q-1.66-4.28-1.66-11.93Z" transform="translate(217.32 -1359.74)"/><path class="cls-2" d="M493.64,1429.83V1372h15.94l13.91,40.66L537.82,1372h14v57.81H540.71V1386.2L526.61,1426h-9.69l-13.83-40.35v44.22Z" transform="translate(217.32 -1359.74)"/><path class="cls-2" d="M-11.09,1452.13v9.53a5.2,5.2,0,0,0,.44,2.33,3.44,3.44,0,0,0,1.44,1.43,4.64,4.64,0,0,0,2.32.56,5.24,5.24,0,0,0,2.47-.53A3.36,3.36,0,0,0-2.95,1464a5.7,5.7,0,0,0,.47-2.55v-9.32H.69v9.73a6.47,6.47,0,0,1-2,5.08,8.11,8.11,0,0,1-5.6,1.78,9,9,0,0,1-3.94-.81,5.74,5.74,0,0,1-2.55-2.34,7.08,7.08,0,0,1-.88-3.59v-9.84Z" transform="translate(217.32 -1359.74)"/><path class="cls-2" d="M10.15,1457.34a3.61,3.61,0,0,1,2.81,1.15,4.35,4.35,0,0,1,1,3v7H11.14v-6.67a2.58,2.58,0,0,0-.51-1.69,1.7,1.7,0,0,0-1.39-.62,2.21,2.21,0,0,0-1.25.39,5.9,5.9,0,0,0-1.29,1.31v7.28H3.81v-10.95H6.7v1.54a5.13,5.13,0,0,1,1.63-1.34A4.14,4.14,0,0,1,10.15,1457.34Z" transform="translate(217.32 -1359.74)"/><path class="cls-2" d="M18.33,1452.49a1.64,1.64,0,0,1,1.63,1.63,1.61,1.61,0,0,1-.47,1.14,1.57,1.57,0,0,1-2.3,0,1.59,1.59,0,0,1-.49-1.14,1.54,1.54,0,0,1,.49-1.15A1.59,1.59,0,0,1,18.33,1452.49Zm1.44,5.06v10.95H16.89v-10.95Z" transform="translate(217.32 -1359.74)"/><path class="cls-2" d="M24.45,1457.55l2.63,6.34,2.57-6.34h3.07l-4.95,11.16H26.37l-5-11.16Z" transform="translate(217.32 -1359.74)"/><path class="cls-2" d="M39.1,1457.34a4.91,4.91,0,0,1,3.82,1.55,6.12,6.12,0,0,1,1.41,4.28v.43H36.58a3.37,3.37,0,0,0,1.1,2.26,3.75,3.75,0,0,0,2.53.79,5.62,5.62,0,0,0,2-.36,8.68,8.68,0,0,0,2-1.08v2.14a7.87,7.87,0,0,1-4.66,1.36,5.89,5.89,0,0,1-4.23-1.56,5.45,5.45,0,0,1-1.64-4.15,5.65,5.65,0,0,1,1.52-4.08A5.23,5.23,0,0,1,39.1,1457.34Zm2.52,4.51a3.17,3.17,0,0,0-.73-1.87,2.15,2.15,0,0,0-1.68-.67,2.4,2.4,0,0,0-1.75.64,3.18,3.18,0,0,0-.84,1.9Z" transform="translate(217.32 -1359.74)"/><path class="cls-2" d="M52.85,1457.34a2.67,2.67,0,0,1,1.13.26,6.3,6.3,0,0,1,1.29.87l-1,2.52a3.79,3.79,0,0,0-2-.94,2.16,2.16,0,0,0-1.32.5,3.56,3.56,0,0,0-1,1.32,3.77,3.77,0,0,0-.39,1.64v5H46.59v-10.95h2.88v2.79h0A7.6,7.6,0,0,1,51.1,1458,2.57,2.57,0,0,1,52.85,1457.34Z" transform="translate(217.32 -1359.74)"/><path class="cls-2" d="M60.17,1457.34a6.8,6.8,0,0,1,1.7.21,8.59,8.59,0,0,1,1.69.65v2.31a8.12,8.12,0,0,0-1.76-.85,5.23,5.23,0,0,0-1.68-.32,1.74,1.74,0,0,0-1,.23.76.76,0,0,0-.35.67.67.67,0,0,0,.29.49,10.92,10.92,0,0,0,1.61.9,9.83,9.83,0,0,1,2.63,1.75,2.71,2.71,0,0,1,.76,1.93,3.05,3.05,0,0,1-1.1,2.49,4.54,4.54,0,0,1-3,.91,8.85,8.85,0,0,1-2.19-.26,7.33,7.33,0,0,1-1.68-.62v-2.4a7.72,7.72,0,0,0,3.55,1.17,2.38,2.38,0,0,0,1.2-.26.79.79,0,0,0,.46-.7.75.75,0,0,0-.16-.47,2.15,2.15,0,0,0-.49-.43q-.33-.22-2.05-1.07a5.85,5.85,0,0,1-2-1.38,2.63,2.63,0,0,1-.63-1.76,2.77,2.77,0,0,1,1.14-2.32A4.8,4.8,0,0,1,60.17,1457.34Z" transform="translate(217.32 -1359.74)"/><path class="cls-2" d="M67.85,1452.49a1.64,1.64,0,0,1,1.63,1.63,1.61,1.61,0,0,1-.47,1.14,1.57,1.57,0,0,1-2.3,0,1.59,1.59,0,0,1-.49-1.14,1.54,1.54,0,0,1,.49-1.15A1.59,1.59,0,0,1,67.85,1452.49Zm1.44,5.06v10.95H66.4v-10.95Z" transform="translate(217.32 -1359.74)"/><path class="cls-2" d="M75.26,1454.64h.23v2.91h3.75v2.18H75.5v5.05a1.64,1.64,0,0,0,.45,1.2,1.62,1.62,0,0,0,1.22.46,4.93,4.93,0,0,0,2.32-.73V1468a7.25,7.25,0,0,1-2.93.69,4,4,0,0,1-2.89-1,3.63,3.63,0,0,1-1-2.73v-5.24H70.92v-.47Z" transform="translate(217.32 -1359.74)"/><path class="cls-2" d="M82.82,1457.55l2.59,5.88,2.63-5.88h3.09L83.57,1474H80.48l3.48-7.54-4.25-8.93Z" transform="translate(217.32 -1359.74)"/><path class="cls-2" d="M108,1451.91a9.83,9.83,0,0,1,4.58,1,8.27,8.27,0,0,1,0,14.66,10.35,10.35,0,0,1-9.26,0,8.1,8.1,0,0,1-4.4-7.29,8.23,8.23,0,0,1,1.16-4.23,8.05,8.05,0,0,1,3.2-3.08A9.75,9.75,0,0,1,108,1451.91Zm-5.78,8.4a5.83,5.83,0,0,0,.74,2.93,5.13,5.13,0,0,0,2.06,2,6.16,6.16,0,0,0,3,.71,5.69,5.69,0,0,0,4.14-1.58,5.45,5.45,0,0,0,1.62-4.08,5.9,5.9,0,0,0-.73-2.94,5.06,5.06,0,0,0-2.06-2,6.6,6.6,0,0,0-6,0,5,5,0,0,0-2,2A6,6,0,0,0,102.24,1460.32Z" transform="translate(217.32 -1359.74)"/><path class="cls-2" d="M124.25,1451.91a6,6,0,0,1,1,.09,3.54,3.54,0,0,1,.86.25v2.34a4.9,4.9,0,0,0-1.3-.16,2,2,0,0,0-1.55.54,2.57,2.57,0,0,0-.51,1.79v.79h1.88v2.18h-1.87v8.77H119.9v-8.77h-1.56v-2.18h1.56v-.82a5,5,0,0,1,1.19-3.52A4.07,4.07,0,0,1,124.25,1451.91Z" transform="translate(217.32 -1359.74)"/><path class="cls-2" d="M140.08,1452.13l7.23,16.37H144l-1.7-4H135l-1.58,4H130.1l6.75-16.37Zm-4.12,10h5.29l-2.77-6.48Z" transform="translate(217.32 -1359.74)"/><path class="cls-2" d="M151.85,1452.13v16.37H149v-16.37Z" transform="translate(217.32 -1359.74)"/><path class="cls-2" d="M158.76,1457.34a5,5,0,0,1,3.22.9,3,3,0,0,1,1.11,2.5v5.36q0,.62.5.62a1.52,1.52,0,0,0,.59-.18,2.62,2.62,0,0,0,.64-.42v1.66a5.4,5.4,0,0,1-2.77.93,2.27,2.27,0,0,1-1.19-.26,1.42,1.42,0,0,1-.58-.91,5.7,5.7,0,0,1-3.32,1.17,2.87,2.87,0,0,1-2-.8,2.53,2.53,0,0,1-.85-1.91,3,3,0,0,1,.84-2.24,7.17,7.17,0,0,1,3-1.43l2.33-.68v-.5q0-1.61-1.95-1.61a4.66,4.66,0,0,0-2,.46,5.62,5.62,0,0,0-1.79,1.35v-2.59A6.65,6.65,0,0,1,158.76,1457.34Zm-1.76,8.23a1.27,1.27,0,0,0,.38,1,1.31,1.31,0,0,0,.94.36,2.84,2.84,0,0,0,1.9-.87v-2.88a13.4,13.4,0,0,0-1.89.77,3.46,3.46,0,0,0-1,.74A1.35,1.35,0,0,0,157,1465.57Z" transform="translate(217.32 -1359.74)"/><path class="cls-2" d="M169.29,1452.13v6.13a4.85,4.85,0,0,1,2.89-.91,5,5,0,0,1,2.62.71,4.8,4.8,0,0,1,1.83,2,6.25,6.25,0,0,1,.65,2.87,5.63,5.63,0,0,1-1.61,4.25,6.05,6.05,0,0,1-4.39,1.55,13.27,13.27,0,0,1-4.87-.93v-15.66Zm0,14.09a6.67,6.67,0,0,0,2.16.32,2.56,2.56,0,0,0,2.1-1,4.16,4.16,0,0,0,.78-2.68,3.67,3.67,0,0,0-.79-2.47,2.59,2.59,0,0,0-2.07-.92,2.7,2.7,0,0,0-1.1.22,4.84,4.84,0,0,0-1.08.69Z" transform="translate(217.32 -1359.74)"/><path class="cls-2" d="M183.52,1457.34a5,5,0,0,1,3.22.9,3,3,0,0,1,1.11,2.5v5.36q0,.62.5.62a1.52,1.52,0,0,0,.59-.18,2.62,2.62,0,0,0,.64-.42v1.66a5.4,5.4,0,0,1-2.77.93,2.27,2.27,0,0,1-1.19-.26,1.42,1.42,0,0,1-.58-.91,5.7,5.7,0,0,1-3.32,1.17,2.87,2.87,0,0,1-2-.8,2.53,2.53,0,0,1-.85-1.91,3,3,0,0,1,.84-2.24,7.17,7.17,0,0,1,3-1.43l2.33-.68v-.5q0-1.61-1.95-1.61a4.66,4.66,0,0,0-2,.46,5.62,5.62,0,0,0-1.79,1.35v-2.59A6.65,6.65,0,0,1,183.52,1457.34Zm-1.76,8.23a1.27,1.27,0,0,0,.38,1,1.31,1.31,0,0,0,.94.36,2.84,2.84,0,0,0,1.9-.87v-2.88a13.4,13.4,0,0,0-1.89.77,3.46,3.46,0,0,0-1,.74A1.35,1.35,0,0,0,181.76,1465.57Z" transform="translate(217.32 -1359.74)"/><path class="cls-2" d="M197.51,1457.34a3.72,3.72,0,0,1,2.14.59,3.62,3.62,0,0,1,1.31,1.59,6.79,6.79,0,0,1,1.85-1.66,4,4,0,0,1,2-.52,3.67,3.67,0,0,1,2.8,1.13,4.22,4.22,0,0,1,1.07,3v7h-2.88V1462a3,3,0,0,0-.49-1.79,1.65,1.65,0,0,0-1.41-.66,3.31,3.31,0,0,0-2.54,1.7v7.28H198.5v-6.57a2.73,2.73,0,0,0-.52-1.76,1.69,1.69,0,0,0-1.38-.64,2.22,2.22,0,0,0-1.29.4,5.78,5.78,0,0,0-1.25,1.29v7.28h-2.88v-10.95h2.88v1.54a5.78,5.78,0,0,1,1.59-1.32A3.93,3.93,0,0,1,197.51,1457.34Z" transform="translate(217.32 -1359.74)"/><path class="cls-2" d="M215.42,1457.34a5,5,0,0,1,3.22.9,3,3,0,0,1,1.11,2.5v5.36q0,.62.5.62a1.52,1.52,0,0,0,.59-.18,2.62,2.62,0,0,0,.64-.42v1.66a5.4,5.4,0,0,1-2.77.93,2.27,2.27,0,0,1-1.19-.26,1.42,1.42,0,0,1-.58-.91,5.7,5.7,0,0,1-3.32,1.17,2.87,2.87,0,0,1-2-.8,2.53,2.53,0,0,1-.85-1.91,3,3,0,0,1,.84-2.24,7.17,7.17,0,0,1,3-1.43l2.33-.68v-.5q0-1.61-1.95-1.61a4.66,4.66,0,0,0-2,.46,5.62,5.62,0,0,0-1.79,1.35v-2.59A6.65,6.65,0,0,1,215.42,1457.34Zm-1.76,8.23a1.27,1.27,0,0,0,.38,1,1.31,1.31,0,0,0,.94.36,2.84,2.84,0,0,0,1.9-.87v-2.88a13.4,13.4,0,0,0-1.89.77,3.46,3.46,0,0,0-1,.74A1.35,1.35,0,0,0,213.66,1465.57Z" transform="translate(217.32 -1359.74)"/><path class="cls-2" d="M237,1452.13a9.66,9.66,0,0,1,4.55,1,7.56,7.56,0,0,1,3.09,2.93,8.26,8.26,0,0,1,1.1,4.24,8.16,8.16,0,0,1-1.11,4.26,7.44,7.44,0,0,1-3.15,2.88,10.32,10.32,0,0,1-4.68,1H230.1v-16.37Zm-.33,13.9a5.72,5.72,0,0,0,4.21-1.58,6.22,6.22,0,0,0,0-8.31,6,6,0,0,0-4.31-1.54h-3.26V1466Z" transform="translate(217.32 -1359.74)"/><path class="cls-2" d="M249.83,1452.49a1.64,1.64,0,0,1,1.63,1.63,1.61,1.61,0,0,1-.47,1.14,1.57,1.57,0,0,1-2.3,0,1.59,1.59,0,0,1-.49-1.14,1.54,1.54,0,0,1,.49-1.15A1.59,1.59,0,0,1,249.83,1452.49Zm1.44,5.06v10.95h-2.88v-10.95Z" transform="translate(217.32 -1359.74)"/><path class="cls-2" d="M264.35,1457.55v2h-1.87a3.93,3.93,0,0,1,.64,1,2.84,2.84,0,0,1,.18,1,3.51,3.51,0,0,1-1,2.4,4.8,4.8,0,0,1-3,1.23,5.59,5.59,0,0,0-1.51.32.59.59,0,0,0-.37.56q0,.34.45.52a7.48,7.48,0,0,0,1.45.35,9,9,0,0,1,3.64,1.22,2.53,2.53,0,0,1,1.17,2.17,3,3,0,0,1-1.42,2.67,7.43,7.43,0,0,1-4.08.93,7.86,7.86,0,0,1-4-.88,2.65,2.65,0,0,1-1.49-2.36q0-2.09,2.87-2.88-1.24-.54-1.24-1.42,0-1.15,1.88-1.58v0a3.93,3.93,0,0,1-2-1.25,3.18,3.18,0,0,1-.76-2.11,3.5,3.5,0,0,1,1.34-2.85,5.37,5.37,0,0,1,3.49-1.08Zm-8.5,13.1q0,1.46,2.93,1.46a4.08,4.08,0,0,0,2-.4,1.2,1.2,0,0,0,.72-1.06,1.18,1.18,0,0,0-.81-1.1,5.74,5.74,0,0,0-2.3-.37,3.53,3.53,0,0,0-1.82.42A1.21,1.21,0,0,0,255.85,1470.65Zm.69-9.14a1.87,1.87,0,0,0,.6,1.42,2.07,2.07,0,0,0,1.47.57,2,2,0,0,0,1.46-.59,2.06,2.06,0,0,0,.57-1.49,1.76,1.76,0,0,0-.6-1.35,2.06,2.06,0,0,0-1.44-.54,2,2,0,0,0-1.47.59A1.9,1.9,0,0,0,256.54,1461.51Z" transform="translate(217.32 -1359.74)"/><path class="cls-2" d="M267.54,1452.49a1.64,1.64,0,0,1,1.63,1.63,1.61,1.61,0,0,1-.47,1.14,1.57,1.57,0,0,1-2.3,0,1.59,1.59,0,0,1-.49-1.14,1.54,1.54,0,0,1,.49-1.15A1.59,1.59,0,0,1,267.54,1452.49Zm1.44,5.06v10.95H266.1v-10.95Z" transform="translate(217.32 -1359.74)"/><path class="cls-2" d="M275,1454.64h.23v2.91h3.75v2.18H275.2v5.05a1.64,1.64,0,0,0,.45,1.2,1.62,1.62,0,0,0,1.22.46,4.93,4.93,0,0,0,2.32-.73V1468a7.25,7.25,0,0,1-2.93.69,4,4,0,0,1-2.89-1,3.63,3.63,0,0,1-1-2.73v-5.24h-1.71v-.47Z" transform="translate(217.32 -1359.74)"/><path class="cls-2" d="M284.76,1457.34a5,5,0,0,1,3.22.9,3,3,0,0,1,1.11,2.5v5.36q0,.62.5.62a1.52,1.52,0,0,0,.59-.18,2.62,2.62,0,0,0,.64-.42v1.66a5.4,5.4,0,0,1-2.77.93,2.27,2.27,0,0,1-1.19-.26,1.42,1.42,0,0,1-.58-.91,5.7,5.7,0,0,1-3.32,1.17,2.87,2.87,0,0,1-2-.8,2.53,2.53,0,0,1-.85-1.91,3,3,0,0,1,.84-2.24,7.17,7.17,0,0,1,3-1.43l2.33-.68v-.5q0-1.61-1.95-1.61a4.66,4.66,0,0,0-2,.46,5.62,5.62,0,0,0-1.79,1.35v-2.59A6.65,6.65,0,0,1,284.76,1457.34Zm-1.76,8.23a1.27,1.27,0,0,0,.38,1,1.31,1.31,0,0,0,.94.36,2.84,2.84,0,0,0,1.9-.87v-2.88a13.4,13.4,0,0,0-1.89.77,3.46,3.46,0,0,0-1,.74A1.35,1.35,0,0,0,283,1465.57Z" transform="translate(217.32 -1359.74)"/><path class="cls-2" d="M295.39,1452.13v16.37h-2.88v-16.37Z" transform="translate(217.32 -1359.74)"/><path class="cls-2" d="M308.56,1452.13V1459h8.5v-6.89h3.16v16.37h-3.16v-6.91h-8.5v6.91H305.4v-16.37Z" transform="translate(217.32 -1359.74)"/><path class="cls-2" d="M326.24,1457.55v6.77a2.26,2.26,0,0,0,.53,1.62,1.87,1.87,0,0,0,1.41.56,2.48,2.48,0,0,0,1.39-.45,3.21,3.21,0,0,0,1.08-1.25v-7.25h2.88v10.95h-2.88V1467a4.55,4.55,0,0,1-3.37,1.7,3.71,3.71,0,0,1-2.84-1.15,4.21,4.21,0,0,1-1.08-3v-7Z" transform="translate(217.32 -1359.74)"/><path class="cls-2" d="M342.77,1457.34a3.72,3.72,0,0,1,2.14.59,3.62,3.62,0,0,1,1.31,1.59,6.79,6.79,0,0,1,1.85-1.66,4,4,0,0,1,2-.52,3.67,3.67,0,0,1,2.8,1.13,4.22,4.22,0,0,1,1.07,3v7h-2.88V1462a3,3,0,0,0-.49-1.79,1.65,1.65,0,0,0-1.41-.66,3.31,3.31,0,0,0-2.54,1.7v7.28h-2.87v-6.57a2.73,2.73,0,0,0-.52-1.76,1.69,1.69,0,0,0-1.38-.64,2.22,2.22,0,0,0-1.29.4,5.78,5.78,0,0,0-1.25,1.29v7.28h-2.88v-10.95h2.88v1.54a5.78,5.78,0,0,1,1.59-1.32A3.93,3.93,0,0,1,342.77,1457.34Z" transform="translate(217.32 -1359.74)"/><path class="cls-2" d="M360.67,1457.34a5,5,0,0,1,3.22.9,3,3,0,0,1,1.11,2.5v5.36q0,.62.5.62a1.52,1.52,0,0,0,.59-.18,2.62,2.62,0,0,0,.64-.42v1.66a5.4,5.4,0,0,1-2.77.93,2.27,2.27,0,0,1-1.19-.26,1.42,1.42,0,0,1-.58-.91,5.7,5.7,0,0,1-3.32,1.17,2.87,2.87,0,0,1-2-.8A2.53,2.53,0,0,1,356,1466a3,3,0,0,1,.84-2.24,7.17,7.17,0,0,1,3-1.43l2.33-.68v-.5q0-1.61-1.95-1.61a4.66,4.66,0,0,0-2,.46,5.62,5.62,0,0,0-1.79,1.35v-2.59A6.65,6.65,0,0,1,360.67,1457.34Zm-1.76,8.23a1.27,1.27,0,0,0,.38,1,1.31,1.31,0,0,0,.94.36,2.84,2.84,0,0,0,1.9-.87v-2.88a13.4,13.4,0,0,0-1.89.77,3.46,3.46,0,0,0-1,.74A1.35,1.35,0,0,0,358.92,1465.57Z" transform="translate(217.32 -1359.74)"/><path class="cls-2" d="M374.67,1457.34a3.61,3.61,0,0,1,2.81,1.15,4.35,4.35,0,0,1,1,3v7h-2.87v-6.67a2.58,2.58,0,0,0-.51-1.69,1.7,1.7,0,0,0-1.39-.62,2.21,2.21,0,0,0-1.25.39,5.9,5.9,0,0,0-1.29,1.31v7.28h-2.88v-10.95h2.88v1.54a5.13,5.13,0,0,1,1.63-1.34A4.14,4.14,0,0,1,374.67,1457.34Z" transform="translate(217.32 -1359.74)"/><path class="cls-2" d="M382.85,1452.49a1.64,1.64,0,0,1,1.63,1.63,1.61,1.61,0,0,1-.47,1.14,1.57,1.57,0,0,1-2.3,0,1.59,1.59,0,0,1-.49-1.14,1.54,1.54,0,0,1,.49-1.15A1.59,1.59,0,0,1,382.85,1452.49Zm1.44,5.06v10.95H381.4v-10.95Z" transform="translate(217.32 -1359.74)"/><path class="cls-2" d="M390.26,1454.64h.23v2.91h3.75v2.18H390.5v5.05a1.64,1.64,0,0,0,.45,1.2,1.62,1.62,0,0,0,1.22.46,4.93,4.93,0,0,0,2.32-.73V1468a7.25,7.25,0,0,1-2.93.69,4,4,0,0,1-2.89-1,3.63,3.63,0,0,1-1-2.73v-5.24h-1.71v-.47Z" transform="translate(217.32 -1359.74)"/><path class="cls-2" d="M397.66,1452.49a1.64,1.64,0,0,1,1.63,1.63,1.61,1.61,0,0,1-.47,1.14,1.57,1.57,0,0,1-2.3,0,1.59,1.59,0,0,1-.49-1.14,1.54,1.54,0,0,1,.49-1.15A1.59,1.59,0,0,1,397.66,1452.49Zm1.44,5.06v10.95h-2.88v-10.95Z" transform="translate(217.32 -1359.74)"/><path class="cls-2" d="M407,1457.34a4.91,4.91,0,0,1,3.82,1.55,6.12,6.12,0,0,1,1.41,4.28v.43h-7.75a3.37,3.37,0,0,0,1.1,2.26,3.75,3.75,0,0,0,2.53.79,5.62,5.62,0,0,0,2-.36,8.68,8.68,0,0,0,2-1.08v2.14a7.87,7.87,0,0,1-4.66,1.36,5.89,5.89,0,0,1-4.23-1.56,5.45,5.45,0,0,1-1.64-4.15,5.65,5.65,0,0,1,1.52-4.08A5.23,5.23,0,0,1,407,1457.34Zm2.52,4.51a3.17,3.17,0,0,0-.73-1.87,2.15,2.15,0,0,0-1.68-.67,2.4,2.4,0,0,0-1.75.64,3.18,3.18,0,0,0-.84,1.9Z" transform="translate(217.32 -1359.74)"/><path class="cls-2" d="M418,1457.34a6.8,6.8,0,0,1,1.7.21,8.59,8.59,0,0,1,1.69.65v2.31a8.12,8.12,0,0,0-1.76-.85,5.23,5.23,0,0,0-1.68-.32,1.74,1.74,0,0,0-1,.23.76.76,0,0,0-.35.67.67.67,0,0,0,.29.49,10.92,10.92,0,0,0,1.61.9,9.83,9.83,0,0,1,2.63,1.75,2.71,2.71,0,0,1,.76,1.93,3.05,3.05,0,0,1-1.1,2.49,4.54,4.54,0,0,1-3,.91,8.85,8.85,0,0,1-2.19-.26,7.33,7.33,0,0,1-1.68-.62v-2.4a7.72,7.72,0,0,0,3.55,1.17,2.38,2.38,0,0,0,1.2-.26.79.79,0,0,0,.46-.7.75.75,0,0,0-.16-.47,2.15,2.15,0,0,0-.49-.43q-.33-.22-2.05-1.07a5.85,5.85,0,0,1-2-1.38,2.63,2.63,0,0,1-.63-1.76,2.77,2.77,0,0,1,1.14-2.32A4.8,4.8,0,0,1,418,1457.34Z" transform="translate(217.32 -1359.74)"/><path class="cls-2" d="M439.78,1451.91a11.81,11.81,0,0,1,2.73.32,13.8,13.8,0,0,1,2.88,1.08v3a13.59,13.59,0,0,0-2.79-1.25,9.23,9.23,0,0,0-2.68-.39,6.81,6.81,0,0,0-3.15.72,5.29,5.29,0,0,0-2.19,2,5.92,5.92,0,0,0,0,5.86,5.19,5.19,0,0,0,2.18,2,6.93,6.93,0,0,0,3.16.71,8.49,8.49,0,0,0,2.57-.39,18.68,18.68,0,0,0,3.09-1.39v3a14.29,14.29,0,0,1-2.93,1.18,12.32,12.32,0,0,1-3.12.35,10.11,10.11,0,0,1-4.63-1,7.74,7.74,0,0,1-3.21-3,8.09,8.09,0,0,1-1.17-4.25,8.36,8.36,0,0,1,1.2-4.44,8.05,8.05,0,0,1,3.3-3A10.33,10.33,0,0,1,439.78,1451.91Z" transform="translate(217.32 -1359.74)"/><path class="cls-2" d="M453.65,1457.34a6.71,6.71,0,0,1,3.11.71,5.19,5.19,0,0,1,2.16,2,5.63,5.63,0,0,1,.76,2.92,5.88,5.88,0,0,1-.73,3,5.14,5.14,0,0,1-2.16,2,6.71,6.71,0,0,1-3.13.74,6.63,6.63,0,0,1-3.13-.74,5.16,5.16,0,0,1-2.14-2,5.88,5.88,0,0,1-.73-3,5.57,5.57,0,0,1,.77-2.94,5.26,5.26,0,0,1,2.16-2A6.63,6.63,0,0,1,453.65,1457.34Zm-3,5.64a4,4,0,0,0,.8,2.62,2.64,2.64,0,0,0,2.15,1,2.77,2.77,0,0,0,2.21-.94,4,4,0,0,0,.81-2.68,3.72,3.72,0,0,0-.81-2.57,2.82,2.82,0,0,0-2.21-.91,2.67,2.67,0,0,0-2.13,1A3.78,3.78,0,0,0,450.67,1463Z" transform="translate(217.32 -1359.74)"/><path class="cls-2" d="M468.32,1457.34a3.61,3.61,0,0,1,2.81,1.15,4.35,4.35,0,0,1,1,3v7h-2.87v-6.67a2.58,2.58,0,0,0-.51-1.69,1.7,1.7,0,0,0-1.39-.62,2.21,2.21,0,0,0-1.25.39,5.9,5.9,0,0,0-1.29,1.31v7.28H462v-10.95h2.88v1.54a5.13,5.13,0,0,1,1.63-1.34A4.14,4.14,0,0,1,468.32,1457.34Z" transform="translate(217.32 -1359.74)"/><path class="cls-2" d="M479.57,1451.91a6,6,0,0,1,1,.09,3.54,3.54,0,0,1,.86.25v2.34a4.9,4.9,0,0,0-1.3-.16,2,2,0,0,0-1.55.54,2.57,2.57,0,0,0-.51,1.79v.79H480v2.18h-1.87v8.77h-2.88v-8.77h-1.56v-2.18h1.56v-.82a5,5,0,0,1,1.19-3.52A4.07,4.07,0,0,1,479.57,1451.91Z" transform="translate(217.32 -1359.74)"/><path class="cls-2" d="M486.42,1457.34a4.91,4.91,0,0,1,3.82,1.55,6.12,6.12,0,0,1,1.41,4.28v.43H483.9a3.37,3.37,0,0,0,1.1,2.26,3.75,3.75,0,0,0,2.53.79,5.62,5.62,0,0,0,2-.36,8.68,8.68,0,0,0,2-1.08v2.14a7.87,7.87,0,0,1-4.66,1.36,5.89,5.89,0,0,1-4.23-1.56,5.45,5.45,0,0,1-1.64-4.15,5.65,5.65,0,0,1,1.52-4.08A5.23,5.23,0,0,1,486.42,1457.34Zm2.52,4.51a3.17,3.17,0,0,0-.73-1.87,2.15,2.15,0,0,0-1.68-.67,2.4,2.4,0,0,0-1.75.64,3.18,3.18,0,0,0-.84,1.9Z" transform="translate(217.32 -1359.74)"/><path class="cls-2" d="M500.16,1457.34a2.67,2.67,0,0,1,1.13.26,6.3,6.3,0,0,1,1.29.87l-1,2.52a3.79,3.79,0,0,0-2-.94,2.16,2.16,0,0,0-1.32.5,3.56,3.56,0,0,0-1,1.32,3.77,3.77,0,0,0-.39,1.64v5H493.9v-10.95h2.88v2.79h0a7.6,7.6,0,0,1,1.58-2.29A2.57,2.57,0,0,1,500.16,1457.34Z" transform="translate(217.32 -1359.74)"/><path class="cls-2" d="M508.35,1457.34a4.91,4.91,0,0,1,3.82,1.55,6.12,6.12,0,0,1,1.41,4.28v.43h-7.75a3.37,3.37,0,0,0,1.1,2.26,3.75,3.75,0,0,0,2.53.79,5.62,5.62,0,0,0,2-.36,8.68,8.68,0,0,0,2-1.08v2.14a7.87,7.87,0,0,1-4.66,1.36,5.89,5.89,0,0,1-4.23-1.56,5.45,5.45,0,0,1-1.64-4.15,5.65,5.65,0,0,1,1.52-4.08A5.23,5.23,0,0,1,508.35,1457.34Zm2.52,4.51a3.17,3.17,0,0,0-.73-1.87,2.15,2.15,0,0,0-1.68-.67,2.4,2.4,0,0,0-1.75.64,3.18,3.18,0,0,0-.84,1.9Z" transform="translate(217.32 -1359.74)"/><path class="cls-2" d="M522.18,1457.34a3.61,3.61,0,0,1,2.81,1.15,4.35,4.35,0,0,1,1,3v7h-2.87v-6.67a2.58,2.58,0,0,0-.51-1.69,1.7,1.7,0,0,0-1.39-.62,2.21,2.21,0,0,0-1.25.39,5.9,5.9,0,0,0-1.29,1.31v7.28h-2.88v-10.95h2.88v1.54a5.13,5.13,0,0,1,1.63-1.34A4.14,4.14,0,0,1,522.18,1457.34Z" transform="translate(217.32 -1359.74)"/><path class="cls-2" d="M534.08,1457.34a7.92,7.92,0,0,1,3.46.74v2.45a5.82,5.82,0,0,0-2.91-.89,3.5,3.5,0,0,0-2.41,5.88,3.41,3.41,0,0,0,2.51.94,8.13,8.13,0,0,0,3-.77V1468a9.21,9.21,0,0,1-3.5.69,6.13,6.13,0,0,1-4.32-1.52,5.23,5.23,0,0,1-1.66-4,5.63,5.63,0,0,1,1.62-4.21A5.74,5.74,0,0,1,534.08,1457.34Z" transform="translate(217.32 -1359.74)"/><path class="cls-2" d="M544.79,1457.34a4.91,4.91,0,0,1,3.82,1.55,6.12,6.12,0,0,1,1.41,4.28v.43h-7.75a3.37,3.37,0,0,0,1.1,2.26,3.75,3.75,0,0,0,2.53.79,5.62,5.62,0,0,0,2-.36,8.68,8.68,0,0,0,2-1.08v2.14a7.87,7.87,0,0,1-4.66,1.36,5.89,5.89,0,0,1-4.23-1.56,5.45,5.45,0,0,1-1.64-4.15,5.65,5.65,0,0,1,1.52-4.08A5.23,5.23,0,0,1,544.79,1457.34Zm2.52,4.51a3.17,3.17,0,0,0-.73-1.87,2.15,2.15,0,0,0-1.68-.67,2.4,2.4,0,0,0-1.75.64,3.18,3.18,0,0,0-.84,1.9Z" transform="translate(217.32 -1359.74)"/></svg>