<svg id="Layer_1" data-name="Layer 1" xmlns="http://www.w3.org/2000/svg" viewBox="0 0 224.52 185.04"><defs><style>.cls-1{fill:none;stroke:#231f20;stroke-miterlimit:10;stroke-width:16px;}.cls-2{fill:#231f20;}.cls-3{fill:#fff;}</style></defs><title>Untitled-3</title><path class="cls-1" d="M120.07,320.24" transform="translate(-64.62 -159.1)"/><path class="cls-2" d="M289.15,271.78h0Z" transform="translate(-64.62 -159.1)"/><path class="cls-2" d="M289.11,271.78Z" transform="translate(-64.62 -159.1)"/><path class="cls-2" d="M280.91,271.44H265.79c-26.85.65-69.58,5.17-88.9,26.1-19.32-20.93-62-25.45-88.89-26.1H72.86c-4.62.12-7.6.3-8.23.35h0v72.35H289.15V271.78C288.51,271.74,285.53,271.55,280.91,271.44Z" transform="translate(-64.62 -159.1)"/><rect class="cls-2" x="108.16" y="0.04" width="116.34" height="11.51"/><path class="cls-2" d="M149.19,168.65c-5.71-6.34-16.7-9.55-32.66-9.55H64.62V259.41H119.7c15.12,0,25.37-3.72,30.47-11.05s7.61-21.89,7.61-43.43C157.78,187.17,154.89,175,149.19,168.65Zm-71,.91h38.22c12.4,0,20.32,2.35,23.54,7s4.91,16.13,4.91,34c0,16.25-1.91,26.84-5.66,31.48s-12.25,6.94-25.31,6.94H78.15Z" transform="translate(-64.62 -159.1)"/><path class="cls-2" d="M261.13,187.83c-12.8,0-21.83,3.85-26.85,11.43-3.08-7.59-11.23-11.43-24.23-11.43-12,0-20.45,3.63-25.09,10.78l.23-9.76h-12.4v70.55h12.39v-40c0-14.89,7.45-22.13,22.76-22.13,11.21,0,16.66,4.24,16.66,13l.16,3.18v46h12.39V218.67c0-8.36,1.56-14.07,4.64-17s9.13-4.41,18-4.41c6.62,0,11.16,1.06,13.5,3.15s3.49,6.13,3.49,12.07v46.92h12.39v-46C289.12,196.45,279.71,187.83,261.13,187.83Z" transform="translate(-64.62 -159.1)"/><path class="cls-3" d="M83.94,329.1V313.2h6.84a6.86,6.86,0,0,1,7.63,7.62,8.47,8.47,0,0,1-2.08,6.11,7.69,7.69,0,0,1-5.83,2.18Zm3.31-2.26h2.47a4.94,4.94,0,0,0,3.89-1.45A6.45,6.45,0,0,0,94.9,321a6.59,6.59,0,0,0-1-3.79,3.75,3.75,0,0,0-1.71-1.44,8.24,8.24,0,0,0-2.91-.4h-2Z" transform="translate(-64.62 -159.1)"/><path class="cls-3" d="M106.88,329.1V313.2h3.31v15.9Z" transform="translate(-64.62 -159.1)"/><path class="cls-3" d="M132.38,328.72a21,21,0,0,1-5.16.77,8.65,8.65,0,0,1-6.32-2.17,9.77,9.77,0,0,1,0-12.37,8.62,8.62,0,0,1,6.29-2.16,22.25,22.25,0,0,1,5.18.61V316a15.79,15.79,0,0,0-4.89-1,4.85,4.85,0,0,0-3.9,1.61,6.83,6.83,0,0,0-1.37,4.57,6.44,6.44,0,0,0,1.47,4.49,5.2,5.2,0,0,0,4.06,1.63,6.56,6.56,0,0,0,1.33-.16v-5.23h3.31Z" transform="translate(-64.62 -159.1)"/><path class="cls-3" d="M141.58,329.1V313.2h3.31v15.9Z" transform="translate(-64.62 -159.1)"/><path class="cls-3" d="M158.32,329.1V315.38h-5.69V313.2h14.71v2.18h-5.69V329.1Z" transform="translate(-64.62 -159.1)"/><path class="cls-3" d="M182,329.5a7.62,7.62,0,0,1-5.79-2.28,9.58,9.58,0,0,1,0-12.16,8.79,8.79,0,0,1,11.76,0,9.59,9.59,0,0,1,0,12.19A8,8,0,0,1,182,329.5Zm0-2.19a4,4,0,0,0,3.37-1.67,7.42,7.42,0,0,0,1.24-4.53,7.28,7.28,0,0,0-1.25-4.45,4.1,4.1,0,0,0-6.61,0,8.71,8.71,0,0,0,0,9A3.84,3.84,0,0,0,182.07,327.31Z" transform="translate(-64.62 -159.1)"/><path class="cls-3" d="M198.67,329.1V313.2h6q4.84,0,4.84,3.94a4.66,4.66,0,0,1-.82,2.68,5.26,5.26,0,0,1-2.26,1.85l5.2,7.42h-4l-3.94-6.5h-1.83v6.5Zm3.12-8.68h.76q3.6,0,3.6-2.91,0-2.13-3.21-2.13h-1.15Z" transform="translate(-64.62 -159.1)"/><path class="cls-3" d="M219.34,329.1V313.2h3.31v15.9Z" transform="translate(-64.62 -159.1)"/><path class="cls-3" d="M232,313.2h3.31v9.74a5.67,5.67,0,0,0,.76,3.33,2.86,2.86,0,0,0,2.46,1,2.73,2.73,0,0,0,2.35-1,5.35,5.35,0,0,0,.73-3.15v-10h2.88V323a10.34,10.34,0,0,1-.42,3.36,4.41,4.41,0,0,1-1.53,2,6.49,6.49,0,0,1-4.07,1.17,7.17,7.17,0,0,1-4.4-1.25,4.63,4.63,0,0,1-1.61-2,9.39,9.39,0,0,1-.46-3.28Z" transform="translate(-64.62 -159.1)"/><path class="cls-3" d="M253.84,329.1V313.2h4.38L262,324.38,266,313.2h3.85v15.9h-3.05v-12L262.9,328h-2.66l-3.8-11.1V329.1Z" transform="translate(-64.62 -159.1)"/></svg>